<?xml version="1.0" encoding="UTF-8" standalone="no"?>
<!-- Created with Inkscape (http://www.inkscape.org/) -->

<svg
	id="svg2"
	version="1.1"
	viewBox="0 0 480.17123 70.107002"
	xmlns="http://www.w3.org/2000/svg"
	xmlns:cc="http://creativecommons.org/ns#"
	xmlns:dc="http://purl.org/dc/elements/1.1/"
	xmlns:inkscape="http://www.inkscape.org/namespaces/inkscape"
	xmlns:rdf="http://www.w3.org/1999/02/22-rdf-syntax-ns#"
	xmlns:sodipodi="http://sodipodi.sourceforge.net/DTD/sodipodi-0.dtd"
	xmlns:xlink="http://www.w3.org/1999/xlink"
	inkscape:export-filename="C:\Users\sr41756\Desktop\gatekeeper.png"
	inkscape:export-xdpi="61.620094"
	inkscape:export-ydpi="61.620094"
	inkscape:version="0.91 r13725"
	sodipodi:docname="gatekeeper.svg">
  <defs
     id="defs4">
    <linearGradient
       id="linearGradient3822">
      <stop
         style="stop-color:#008f00;stop-opacity:1;"
         id="stop3824"
         offset="0" />
      <stop
         style="stop-color:#ffffff;stop-opacity:1;"
         id="stop3826"
         offset="1" />
    </linearGradient>
    <linearGradient
       id="linearGradient3795">
      <stop
         style="stop-color:#2f9600;stop-opacity:1;"
         id="stop3797"
         offset="0" />
      <stop
         style="stop-color:#ffffff;stop-opacity:1;"
         id="stop3799"
         offset="1" />
    </linearGradient>
    <linearGradient
       gradientTransform="matrix(-0.53167848,0,0,0.71443954,433.89361,175.30088)"
       gradientUnits="userSpaceOnUse"
       id="linearGradient4158"
       x1="275.55096"
       x2="269.84589"
       y1="168.02112"
       y2="158.97551"
       inkscape:collect="always"
       xlink:href="#linearGradient3822" />
    <linearGradient
       gradientTransform="matrix(0.85440613,0,0,0.85440613,65.07178,151.79594)"
       gradientUnits="userSpaceOnUse"
       id="linearGradient4164"
       x1="275.55096"
       x2="269.84589"
       y1="168.02112"
       y2="158.97551"
       inkscape:collect="always"
       xlink:href="#linearGradient3822" />
    <linearGradient
       gradientTransform="translate(59.366541,135.15201)"
       gradientUnits="userSpaceOnUse"
       id="linearGradient4239"
       x1="289.23138"
       x2="281.02191"
       y1="151.37416"
       y2="143.24072"
       inkscape:collect="always"
       xlink:href="#linearGradient3795" />
    <linearGradient
       gradientTransform="matrix(0.85440613,0,0,0.85440613,64.357366,151.40627)"
       gradientUnits="userSpaceOnUse"
       id="linearGradient3083"
       x1="289.23138"
       x2="281.02191"
       y1="151.37416"
       y2="143.24072"
       inkscape:collect="always"
       xlink:href="#linearGradient3795" />
    <linearGradient
       gradientUnits="userSpaceOnUse"
       id="linearGradient3866"
       x1="338.54877"
       x2="328.88077"
       y1="282.63428"
       y2="274.08105"
       inkscape:collect="always"
       xlink:href="#linearGradient3795" />
    <linearGradient
       gradientUnits="userSpaceOnUse"
       id="linearGradient3875"
       x1="335.63193"
       x2="328.57141"
       y1="281.57361"
       y2="274.83234"
       inkscape:collect="always"
       xlink:href="#linearGradient3795" />
    <linearGradient
       gradientUnits="userSpaceOnUse"
       id="linearGradient3891"
       x1="335.63193"
       x2="328.57141"
       y1="281.57361"
       y2="274.83234"
       inkscape:collect="always"
       xlink:href="#linearGradient3795" />
    <linearGradient
       gradientUnits="userSpaceOnUse"
       id="linearGradient3905"
       x1="335.63193"
       x2="328.57141"
       y1="281.57361"
       y2="274.83234"
       inkscape:collect="always"
       xlink:href="#linearGradient3795" />
    <linearGradient
       gradientUnits="userSpaceOnUse"
       id="linearGradient3907"
       x1="335.63193"
       x2="328.57141"
       y1="281.57361"
       y2="274.83234"
       inkscape:collect="always"
       xlink:href="#linearGradient3795" />
    <linearGradient
       gradientTransform="matrix(0.85440613,0,0,0.85440613,65.07178,151.79594)"
       gradientUnits="userSpaceOnUse"
       id="linearGradient4131"
       x1="275.55096"
       x2="269.84589"
       y1="168.02112"
       y2="158.97551"
       inkscape:collect="always"
       xlink:href="#linearGradient3822" />
    <linearGradient
       gradientUnits="userSpaceOnUse"
       id="linearGradient4133"
       x1="335.63193"
       x2="328.57141"
       y1="281.57361"
       y2="274.83234"
       inkscape:collect="always"
       xlink:href="#linearGradient3795" />
    <linearGradient
       gradientTransform="matrix(-0.53167848,0,0,0.71443954,433.89361,175.30088)"
       gradientUnits="userSpaceOnUse"
       id="linearGradient4135"
       x1="275.55096"
       x2="269.84589"
       y1="168.02112"
       y2="158.97551"
       inkscape:collect="always"
       xlink:href="#linearGradient3822" />
    <linearGradient
       gradientUnits="userSpaceOnUse"
       id="linearGradient4137"
       x1="335.63193"
       x2="328.57141"
       y1="281.57361"
       y2="274.83234"
       inkscape:collect="always"
       xlink:href="#linearGradient3795" />
  </defs>
  <sodipodi:namedview
     bordercolor="#666666"
     borderopacity="1.0"
     fit-margin-bottom="0"
     fit-margin-left="0"
     fit-margin-right="0"
     fit-margin-top="0"
     id="base"
     pagecolor="#ffffff"
     showgrid="true"
     inkscape:current-layer="layer1"
     inkscape:cx="200.98133"
     inkscape:cy="-51.455717"
     inkscape:document-units="px"
     inkscape:pageopacity="0.0"
     inkscape:pageshadow="2"
     inkscape:window-height="1018"
     inkscape:window-maximized="1"
     inkscape:window-width="1920"
     inkscape:window-x="1912"
     inkscape:window-y="-8"
     inkscape:zoom="1.5943078">
    <inkscape:grid
       empspacing="5"
       enabled="true"
       id="grid3163"
       originx="1.8175893e-007"
       originy="0.0002200592"
       snapvisiblegridlinesonly="true"
       type="xygrid"
       visible="true" />
  </sodipodi:namedview>
  <metadata
     id="metadata7">
    <rdf:RDF>
      <cc:Work
         rdf:about="">
        <dc:format>image/svg+xml</dc:format>
        <dc:type
           rdf:resource="http://purl.org/dc/dcmitype/StillImage" />
        <dc:title></dc:title>
      </cc:Work>
    </rdf:RDF>
  </metadata>
  <g
     id="layer1"
     transform="translate(-152.76815,-261.99287)"
     inkscape:groupmode="layer"
     inkscape:label="Layer 1">
    <g
       id="g4105">
      <path
         style="fill:url(#linearGradient4131);fill-opacity:1;stroke:#2f8600;stroke-width:0.25632185;stroke-miterlimit:4;stroke-dasharray:none;stroke-opacity:0.95294118"
         d="m 293.29343,296.71808 12.53465,-9.54712 -8.57291,9.87185 z"
         id="path3820"
         inkscape:connector-curvature="0"
         inkscape:export-filename="C:\Users\sr41756\Desktop\logo2.png"
         inkscape:export-xdpi="48.573853"
         inkscape:export-ydpi="48.573853"
         sodipodi:nodetypes="cccc" />
      <g
         id="g3884"
         transform="translate(-24.837126,-0.75130096)">
        <path
           style="fill:#2f9600;fill-opacity:1;stroke:none"
           d="m 327.56315,289.89401 c -0.61326,-0.57197 -1.13726,-1.26211 -1.50573,-2.01542 -0.46659,-0.95392 -0.71979,-2.01727 -0.84417,-3.07188 -0.14714,-1.24764 -0.21931,-2.55881 0.12586,-3.76674 0.34608,-1.21109 1.02005,-2.36057 1.8883,-3.27307 0.71141,-0.74767 1.68942,-1.19588 2.60167,-1.6785 1.39619,-0.73862 2.91316,-1.22205 4.36408,-1.84634 1.57073,-0.67584 3.18022,-1.27196 4.69978,-2.05615 1.667,-0.86027 3.3274,-1.76662 4.82566,-2.89539 1.14612,-0.8635 2.1602,-1.8957 3.14717,-2.93738 1.07904,-1.13882 3.0213,-3.60875 3.0213,-3.60875 0,0 -0.14552,2.12809 -0.25178,3.18914 -0.19656,1.96281 -0.41844,3.92426 -0.71336,5.87472 -0.34005,2.24889 -0.5983,4.52525 -1.21691,6.71397 -0.55529,1.96468 -1.21495,3.93202 -2.224,5.70688 -0.95556,1.68075 -2.14152,3.26751 -3.5668,4.57388 -1.02005,0.93494 -2.20129,1.73689 -3.48287,2.25858 -1.45382,0.5918 -3.04911,0.85317 -4.61709,0.92564 -1.20214,0.0556 -2.45517,0.0198 -3.59021,-0.38013 -0.99494,-0.35054 -1.88947,-0.99357 -2.6609,-1.71306 z"
           id="path3088"
           inkscape:connector-curvature="0"
           sodipodi:nodetypes="aaaaaaaaaacaaaaaaaaa" />
        <g
           id="g3877">
          <path
             style="fill:url(#linearGradient4133);fill-opacity:1;stroke:none"
             d="m 327.83369,289.21943 c -0.553,-0.54542 -1.02032,-1.19795 -1.34199,-1.90495 -0.40734,-0.89528 -0.61427,-1.88635 -0.70215,-2.86601 -0.10394,-1.15896 -0.13687,-2.37479 0.21398,-3.48425 0.35174,-1.11236 1.00547,-2.15921 1.83298,-2.98161 0.678,-0.67385 1.59511,-1.06354 2.45222,-1.48679 1.31178,-0.64776 2.7288,-1.05611 4.08832,-1.59661 1.47177,-0.58513 2.97736,-1.09544 4.40456,-1.78219 1.56568,-0.7534 3.12645,-1.54961 4.54282,-2.55595 1.08351,-0.76986 2.04909,-1.69931 2.98986,-2.63825 1.0285,-1.02649 2.89065,-3.2631 2.89065,-3.2631 0,0 -0.18977,1.96658 -0.31558,2.94621 -0.23277,1.81222 -0.48892,3.62254 -0.81243,5.4208 -0.37299,2.07338 -0.67099,4.17435 -1.30032,6.1848 -0.56495,1.8047 -1.22659,3.60913 -2.20675,5.22632 -0.92818,1.53145 -2.06726,2.96991 -3.42067,4.14258 -0.96863,0.83926 -2.08305,1.5512 -3.28312,2.00109 -1.36135,0.51033 -2.84515,0.71107 -4.29877,0.73762 -1.11445,0.0204 -2.27368,-0.0451 -3.31424,-0.44481 -0.91212,-0.35027 -1.72371,-0.96878 -2.41934,-1.6549 z"
             id="path3858"
             inkscape:connector-curvature="0"
             sodipodi:nodetypes="aaaaaaaaaacaaaaaaaaa" />
          <path
             style="fill:none;stroke:#2f8200;stroke-width:0.64080459;stroke-linecap:butt;stroke-linejoin:miter;stroke-miterlimit:4;stroke-dasharray:none;stroke-opacity:1"
             d="m 328.37716,289.7201 c 0,0 0.008,-0.009 0.0332,-0.042 0.25402,-0.3415 3.53817,-5.38096 5.61968,-7.50687 2.08152,-2.12591 4.48719,-3.02937 6.60225,-5.04468 2.11507,-2.01531 4.33433,-4.43353 5.81648,-6.72749 1.48214,-2.29395 2.80311,-6.16685 2.80311,-6.16685"
             id="path3868"
             inkscape:connector-curvature="0"
             inkscape:export-filename="C:\Users\sr41756\Desktop\logo2.png"
             inkscape:export-xdpi="48.573853"
             inkscape:export-ydpi="48.573853"
             sodipodi:nodetypes="cszzzc" />
          <path
             style="fill:#2f9600;fill-opacity:1;stroke:none"
             d="m 344.84375,0.78125 c 0,0 -1.92096,2.45493 -3,3.59375 -0.98697,1.04168 -2.01013,2.074 -3.15625,2.9375 -1.49826,1.12877 -3.1455,2.04598 -4.8125,2.90625 -1.51956,0.78419 -3.14802,1.38666 -4.71875,2.0625 -1.45092,0.62429 -2.97881,1.10513 -4.375,1.84375 -0.91225,0.48262 -1.88234,0.90858 -2.59375,1.65625 -0.86825,0.9125 -1.52892,2.07016 -1.875,3.28125 -0.34517,1.20793 -0.27214,2.53361 -0.125,3.78125 0.12438,1.05461 0.37716,2.10858 0.84375,3.0625 0.36847,0.75331 0.88674,1.45928 1.5,2.03125 0.77143,0.71949 1.66131,1.33696 2.65625,1.6875 1.13504,0.39993 2.39161,0.4306 3.59375,0.375 1.56798,-0.07247 3.17118,-0.31445 4.625,-0.90625 1.28158,-0.52169 2.4487,-1.31506 3.46875,-2.25 1.42528,-1.30637 2.60694,-2.913 3.5625,-4.59375 1.00905,-1.77486 1.66346,-3.72282 2.21875,-5.6875 0.61861,-2.18872 0.8787,-4.46986 1.21875,-6.71875 0.29492,-1.95046 0.52219,-3.91219 0.71875,-5.875 0.10626,-1.06105 0.25,-3.1875 0.25,-3.1875 z m -0.6875,1.90625 c 0,0 -0.18669,1.95787 -0.3125,2.9375 -0.23277,1.81222 -0.48899,3.63924 -0.8125,5.4375 -0.37299,2.07338 -0.65192,4.17705 -1.28125,6.1875 -0.56495,1.8047 -1.23859,3.60156 -2.21875,5.21875 -0.92818,1.53145 -2.05284,2.95233 -3.40625,4.125 -0.96863,0.83926 -2.08118,1.58136 -3.28125,2.03125 -1.36135,0.51033 -2.85888,0.6922 -4.3125,0.71875 -1.11445,0.0204 -2.27194,-0.03779 -3.3125,-0.4375 -0.91212,-0.35027 -1.71062,-0.97013 -2.40625,-1.65625 -0.553,-0.54542 -1.02208,-1.19925 -1.34375,-1.90625 -0.40734,-0.89528 -0.63087,-1.89534 -0.71875,-2.875 -0.10394,-1.15896 -0.1321,-2.35929 0.21875,-3.46875 0.35174,-1.11236 1.01624,-2.1776 1.84375,-3 0.678,-0.67385 1.58039,-1.0455 2.4375,-1.46875 1.31178,-0.64776 2.73423,-1.05325 4.09375,-1.59375 1.47177,-0.58513 2.97905,-1.0945 4.40625,-1.78125 1.56568,-0.7534 3.11488,-1.55616 4.53125,-2.5625 1.08351,-0.76986 2.05923,-1.71731 3,-2.65625 1.0285,-1.02649 2.875,-3.25 2.875,-3.25 z"
             id="path3872"
             transform="translate(5.0332218,261.97177)"
             inkscape:connector-curvature="0" />
        </g>
      </g>
      <path
         style="fill:url(#linearGradient4135);fill-opacity:1;stroke:#2f8600;stroke-width:0.18489644;stroke-miterlimit:4;stroke-dasharray:none;stroke-opacity:0.95294118"
         d="m 291.8762,296.48226 -7.80004,-7.98314 5.33474,8.25467 z"
         id="path3830"
         inkscape:connector-curvature="0"
         inkscape:export-filename="C:\Users\sr41756\Desktop\logo2.png"
         inkscape:export-xdpi="48.573853"
         inkscape:export-ydpi="48.573853"
         sodipodi:nodetypes="cccc" />
      <g
         id="g3893"
         transform="matrix(-0.72664974,0,0,0.72664974,525.12641,80.881053)">
        <path
           style="fill:#2f9600;fill-opacity:1;stroke:none"
           d="m 327.56315,289.89401 c -0.61326,-0.57197 -1.13726,-1.26211 -1.50573,-2.01542 -0.46659,-0.95392 -0.71979,-2.01727 -0.84417,-3.07188 -0.14714,-1.24764 -0.21931,-2.55881 0.12586,-3.76674 0.34608,-1.21109 1.02005,-2.36057 1.8883,-3.27307 0.71141,-0.74767 1.68942,-1.19588 2.60167,-1.6785 1.39619,-0.73862 2.91316,-1.22205 4.36408,-1.84634 1.57073,-0.67584 3.18022,-1.27196 4.69978,-2.05615 1.667,-0.86027 3.3274,-1.76662 4.82566,-2.89539 1.14612,-0.8635 2.1602,-1.8957 3.14717,-2.93738 1.07904,-1.13882 3.0213,-3.60875 3.0213,-3.60875 0,0 -0.14552,2.12809 -0.25178,3.18914 -0.19656,1.96281 -0.41844,3.92426 -0.71336,5.87472 -0.34005,2.24889 -0.5983,4.52525 -1.21691,6.71397 -0.55529,1.96468 -1.21495,3.93202 -2.224,5.70688 -0.95556,1.68075 -2.14152,3.26751 -3.5668,4.57388 -1.02005,0.93494 -2.20129,1.73689 -3.48287,2.25858 -1.45382,0.5918 -3.04911,0.85317 -4.61709,0.92564 -1.20214,0.0556 -2.45517,0.0198 -3.59021,-0.38013 -0.99494,-0.35054 -1.88947,-0.99357 -2.6609,-1.71306 z"
           id="path3895"
           inkscape:connector-curvature="0"
           sodipodi:nodetypes="aaaaaaaaaacaaaaaaaaa" />
        <g
           id="g3897">
          <path
             style="fill:url(#linearGradient4137);fill-opacity:1;stroke:none"
             d="m 327.83369,289.21943 c -0.553,-0.54542 -1.02032,-1.19795 -1.34199,-1.90495 -0.40734,-0.89528 -0.61427,-1.88635 -0.70215,-2.86601 -0.10394,-1.15896 -0.13687,-2.37479 0.21398,-3.48425 0.35174,-1.11236 1.00547,-2.15921 1.83298,-2.98161 0.678,-0.67385 1.59511,-1.06354 2.45222,-1.48679 1.31178,-0.64776 2.7288,-1.05611 4.08832,-1.59661 1.47177,-0.58513 2.97736,-1.09544 4.40456,-1.78219 1.56568,-0.7534 3.12645,-1.54961 4.54282,-2.55595 1.08351,-0.76986 2.04909,-1.69931 2.98986,-2.63825 1.0285,-1.02649 2.89065,-3.2631 2.89065,-3.2631 0,0 -0.18977,1.96658 -0.31558,2.94621 -0.23277,1.81222 -0.48892,3.62254 -0.81243,5.4208 -0.37299,2.07338 -0.67099,4.17435 -1.30032,6.1848 -0.56495,1.8047 -1.22659,3.60913 -2.20675,5.22632 -0.92818,1.53145 -2.06726,2.96991 -3.42067,4.14258 -0.96863,0.83926 -2.08305,1.5512 -3.28312,2.00109 -1.36135,0.51033 -2.84515,0.71107 -4.29877,0.73762 -1.11445,0.0204 -2.27368,-0.0451 -3.31424,-0.44481 -0.91212,-0.35027 -1.72371,-0.96878 -2.41934,-1.6549 z"
             id="path3899"
             inkscape:connector-curvature="0"
             sodipodi:nodetypes="aaaaaaaaaacaaaaaaaaa" />
          <path
             style="fill:none;stroke:#2f8200;stroke-width:0.64080459;stroke-linecap:butt;stroke-linejoin:miter;stroke-miterlimit:4;stroke-dasharray:none;stroke-opacity:1"
             d="m 328.37716,289.7201 c 0,0 0.008,-0.009 0.0332,-0.042 0.25402,-0.3415 3.53817,-5.38096 5.61968,-7.50687 2.08152,-2.12591 4.48719,-3.02937 6.60225,-5.04468 2.11507,-2.01531 4.33433,-4.43353 5.81648,-6.72749 1.48214,-2.29395 2.80311,-6.16685 2.80311,-6.16685"
             id="path3901"
             inkscape:connector-curvature="0"
             inkscape:export-filename="C:\Users\sr41756\Desktop\logo2.png"
             inkscape:export-xdpi="48.573853"
             inkscape:export-ydpi="48.573853"
             sodipodi:nodetypes="cszzzc" />
          <path
             style="fill:#2f9600;fill-opacity:1;stroke:none"
             d="m 344.84375,0.78125 c 0,0 -1.92096,2.45493 -3,3.59375 -0.98697,1.04168 -2.01013,2.074 -3.15625,2.9375 -1.49826,1.12877 -3.1455,2.04598 -4.8125,2.90625 -1.51956,0.78419 -3.14802,1.38666 -4.71875,2.0625 -1.45092,0.62429 -2.97881,1.10513 -4.375,1.84375 -0.91225,0.48262 -1.88234,0.90858 -2.59375,1.65625 -0.86825,0.9125 -1.52892,2.07016 -1.875,3.28125 -0.34517,1.20793 -0.27214,2.53361 -0.125,3.78125 0.12438,1.05461 0.37716,2.10858 0.84375,3.0625 0.36847,0.75331 0.88674,1.45928 1.5,2.03125 0.77143,0.71949 1.66131,1.33696 2.65625,1.6875 1.13504,0.39993 2.39161,0.4306 3.59375,0.375 1.56798,-0.07247 3.17118,-0.31445 4.625,-0.90625 1.28158,-0.52169 2.4487,-1.31506 3.46875,-2.25 1.42528,-1.30637 2.60694,-2.913 3.5625,-4.59375 1.00905,-1.77486 1.66346,-3.72282 2.21875,-5.6875 0.61861,-2.18872 0.8787,-4.46986 1.21875,-6.71875 0.29492,-1.95046 0.52219,-3.91219 0.71875,-5.875 0.10626,-1.06105 0.25,-3.1875 0.25,-3.1875 z m -0.6875,1.90625 c 0,0 -0.18669,1.95787 -0.3125,2.9375 -0.23277,1.81222 -0.48899,3.63924 -0.8125,5.4375 -0.37299,2.07338 -0.65192,4.17705 -1.28125,6.1875 -0.56495,1.8047 -1.23859,3.60156 -2.21875,5.21875 -0.92818,1.53145 -2.05284,2.95233 -3.40625,4.125 -0.96863,0.83926 -2.08118,1.58136 -3.28125,2.03125 -1.36135,0.51033 -2.85888,0.6922 -4.3125,0.71875 -1.11445,0.0204 -2.27194,-0.03779 -3.3125,-0.4375 -0.91212,-0.35027 -1.71062,-0.97013 -2.40625,-1.65625 -0.553,-0.54542 -1.02208,-1.19925 -1.34375,-1.90625 -0.40734,-0.89528 -0.63087,-1.89534 -0.71875,-2.875 -0.10394,-1.15896 -0.1321,-2.35929 0.21875,-3.46875 0.35174,-1.11236 1.01624,-2.1776 1.84375,-3 0.678,-0.67385 1.58039,-1.0455 2.4375,-1.46875 1.31178,-0.64776 2.73423,-1.05325 4.09375,-1.59375 1.47177,-0.58513 2.97905,-1.0945 4.40625,-1.78125 1.56568,-0.7534 3.11488,-1.55616 4.53125,-2.5625 1.08351,-0.76986 2.05923,-1.71731 3,-2.65625 1.0285,-1.02649 2.875,-3.25 2.875,-3.25 z"
             id="path3903"
             transform="translate(5.0332218,261.97177)"
             inkscape:connector-curvature="0" />
        </g>
      </g>
      <path
         style="font-style:normal;font-variant:normal;font-weight:bold;font-stretch:normal;font-size:72px;line-height:125%;font-family:'Myriad Pro Cond';-inkscape-font-specification:'Myriad Pro Cond Bold';letter-spacing:0px;word-spacing:0px;fill:#00acef;fill-opacity:1;stroke:none"
         d="m 182.07702,304.30801 -13.03183,0 0,7.7039 4.39194,0 0,11.73585 c -0.37201,0.144 -0.996,0.216 -1.87197,0.216 -2.32799,0.066 -4.38596,-1.12798 -6.17392,-3.58196 -1.78799,-2.45395 -2.72998,-6.5639 -2.82597,-12.32984 0.078,-6.22039 1.19998,-10.62733 3.36596,-13.22083 2.16596,-2.59343 4.90792,-3.85041 8.2259,-3.77095 1.14896,4e-5 2.18094,0.09 3.09596,0.27 0.91496,0.18003 1.73094,0.45003 2.44796,0.80998 l 1.58398,-8.13589 c -0.75902,-0.37495 -1.797,-0.70494 -3.11396,-0.98999 -1.31701,-0.28495 -2.89498,-0.43494 -4.73394,-0.44999 -5.41494,-0.0614 -10.13688,1.89752 -14.16581,5.87692 -4.02895,3.97949 -6.19492,10.3484 -6.49792,19.10676 -0.063,4.21796 0.44099,8.02191 1.51198,11.41185 1.07098,3.38996 2.65496,6.11393 4.75194,8.17189 1.57797,1.61848 3.44394,2.82747 5.59793,3.62696 2.15396,0.79949 4.63192,1.19848 7.4339,1.19698 1.82996,-0.018 3.67793,-0.198 5.54393,-0.53999 1.86595,-0.342 3.35393,-0.73799 4.46394,-1.18799 z"
         id="path4219"
         inkscape:connector-curvature="0" />
      <path
         style="font-style:normal;font-variant:normal;font-weight:bold;font-stretch:normal;font-size:72px;line-height:125%;font-family:'Myriad Pro Cond';-inkscape-font-specification:'Myriad Pro Cond Bold';letter-spacing:0px;word-spacing:0px;fill:#00acef;fill-opacity:1;stroke:none"
         d="m 212.86832,317.26784 c 0.075,-0.48748 0.14097,-1.11447 0.19799,-1.88098 0.057,-0.76647 0.087,-1.77145 0.09,-3.01496 -0.0255,-5.3894 -1.07251,-9.51434 -3.14096,-12.37484 -2.0685,-2.86043 -5.00546,-4.30341 -8.81088,-4.32894 -4.05297,0.0465 -7.39492,1.71751 -10.02588,5.01294 -2.63097,3.29548 -3.99295,7.93642 -4.08594,13.92282 0.018,5.54243 1.29598,9.81138 3.83395,12.80683 2.53796,2.99546 6.2279,4.51044 11.06986,4.54494 1.79395,-0.007 3.53393,-0.1545 5.21993,-0.44099 1.68595,-0.2865 3.13793,-0.66749 4.35594,-1.14299 l -1.22398,-6.76791 c -0.86852,0.3 -1.8675,0.564 -2.99696,0.79199 -1.12951,0.228 -2.36249,0.348 -3.69896,0.35999 -2.09999,0.03 -3.83996,-0.53398 -5.21993,-1.69197 -1.37999,-1.15798 -2.11198,-3.08995 -2.19597,-5.79593 z m -16.63179,-6.62391 c 0.0255,-1.87946 0.38848,-3.66443 1.08898,-5.35494 0.70048,-1.69045 1.80147,-2.59343 3.30296,-2.70896 1.39347,0.0525 2.40445,0.82952 3.03296,2.33097 0.62847,1.5015 0.93747,3.41248 0.92699,5.73293 z"
         id="path4221"
         inkscape:connector-curvature="0" />
      <path
         style="font-style:normal;font-variant:normal;font-weight:bold;font-stretch:normal;font-size:72px;line-height:125%;font-family:'Myriad Pro Cond';-inkscape-font-specification:'Myriad Pro Cond Bold';letter-spacing:0px;word-spacing:0px;fill:#00acef;fill-opacity:1;stroke:none"
         d="m 218.55101,331.52366 9.43187,0 0,-17.92777 c -1e-5,-0.72747 0.036,-1.39646 0.108,-2.00698 0.072,-0.61047 0.17999,-1.11746 0.324,-1.52098 0.55198,-1.78195 1.37397,-3.05993 2.46597,-3.83395 1.09196,-0.77396 2.16595,-1.15196 3.22196,-1.13398 0.77997,-0.012 1.45196,0.012 2.01597,0.072 l 0,-9.28788 c -0.24152,-0.072 -0.51451,-0.12597 -0.81899,-0.162 -0.30452,-0.036 -0.70351,-0.054 -1.19698,-0.054 -1.29601,0.006 -2.57399,0.49803 -3.83396,1.47598 -1.25999,0.97802 -2.28598,2.406 -3.07796,4.28395 l -0.28799,0 -0.50399,-5.11194 -8.1359,0 c 0.075,1.67401 0.14099,3.41999 0.198,5.23793 0.057,1.81801 0.087,3.59998 0.09,5.34593 z"
         id="path4223"
         inkscape:connector-curvature="0" />
      <path
         style="font-style:normal;font-variant:normal;font-weight:bold;font-stretch:normal;font-size:72px;line-height:125%;font-family:'Myriad Pro Cond';-inkscape-font-specification:'Myriad Pro Cond Bold';letter-spacing:0px;word-spacing:0px;fill:#00acef;fill-opacity:1;stroke:none"
         d="m 239.71338,331.52366 9.43188,0 0,-22.17572 c 0.001,-0.51147 0.0345,-1.00046 0.099,-1.46698 0.0645,-0.46647 0.15148,-0.86546 0.261,-1.19698 0.34048,-1.07696 0.82947,-1.87495 1.46698,-2.39397 0.63747,-0.51897 1.32446,-0.77696 2.06097,-0.77399 1.42346,0.084 2.32045,0.74401 2.69096,1.97997 0.37048,1.23601 0.52948,2.54399 0.477,3.92395 l 0,22.10372 9.43188,0 0,-22.31971 c -0.002,-0.50998 0.0195,-0.98397 0.063,-1.42199 0.0435,-0.43797 0.11847,-0.80396 0.22499,-1.09798 0.29547,-1.01396 0.74847,-1.79395 1.35899,-2.33997 0.61046,-0.54597 1.33345,-0.82197 2.16897,-0.82799 1.36345,0.0525 2.25443,0.75752 2.67296,2.11497 0.41846,1.35751 0.60746,3.05248 0.567,5.08494 l 0,20.80773 9.43188,0 0,-22.39171 c 0.0149,-4.24642 -0.71704,-7.54338 -2.19598,-9.89088 -1.47902,-2.34743 -3.79499,-3.53842 -6.94791,-3.57295 -1.81201,4e-5 -3.44399,0.43203 -4.89593,1.29598 -0.69453,0.43953 -1.35752,0.96452 -1.98898,1.57498 -0.63152,0.61053 -1.16851,1.26152 -1.61098,1.95298 l -0.14399,0 c -0.60903,-1.52395 -1.55101,-2.70594 -2.82597,-3.54596 -1.27501,-0.83995 -2.90098,-1.26595 -4.87794,-1.27798 -1.81049,0.033 -3.42747,0.48903 -4.85093,1.36798 -1.4235,0.87902 -2.59048,1.98301 -3.50096,3.31196 l -0.144,0 -0.50399,-4.03195 -8.20789,0 c 0.075,1.68301 0.14099,3.39299 0.19799,5.12993 0.057,1.73701 0.087,3.55499 0.09,5.45393 z"
         id="path4225"
         inkscape:connector-curvature="0" />
      <path
         style="font-style:normal;font-variant:normal;font-weight:bold;font-stretch:normal;font-size:72px;line-height:125%;font-family:'Myriad Pro Cond';-inkscape-font-specification:'Myriad Pro Cond Bold';letter-spacing:0px;word-spacing:0px;fill:#00acef;fill-opacity:1;stroke:none"
         d="m 298.15476,331.52366 0,-35.20755 -9.43188,0 0,35.20755 z"
         id="path4227"
         inkscape:connector-curvature="0"
         sodipodi:nodetypes="ccccc" />
      <path
         style="font-style:normal;font-variant:normal;font-weight:bold;font-stretch:normal;font-size:72px;line-height:125%;font-family:'Myriad Pro Cond';-inkscape-font-specification:'Myriad Pro Cond Bold';letter-spacing:0px;word-spacing:0px;fill:#00acef;fill-opacity:1;stroke:none"
         d="m 304.75413,331.52366 9.43188,0 0,-21.45573 c 0.003,-0.68847 0.051,-1.30946 0.144,-1.86297 0.093,-0.55347 0.21298,-1.01246 0.35999,-1.37698 0.33148,-1.04547 0.80248,-1.83445 1.41299,-2.36697 0.61047,-0.53247 1.31546,-0.79947 2.11497,-0.80099 1.34096,0.0585 2.25895,0.66152 2.75396,1.80897 0.49498,1.14751 0.72897,2.4885 0.70199,4.02295 l 0,22.03172 9.43188,0 0,-22.60771 c 0.0285,-3.98242 -0.69452,-7.15938 -2.16897,-9.53088 -1.47451,-2.37144 -3.87148,-3.58642 -7.19091,-3.64495 -1.84799,0.021 -3.49797,0.44703 -4.94993,1.27798 -1.452,0.83103 -2.63398,1.94101 -3.54596,3.32996 l -0.144,0 -0.50399,-4.03195 -8.1359,0 c 0.075,1.68301 0.141,3.39299 0.198,5.12993 0.057,1.73701 0.087,3.55499 0.09,5.45393 z"
         id="path4229"
         inkscape:connector-curvature="0" />
      <path
         style="font-style:normal;font-variant:normal;font-weight:bold;font-stretch:normal;font-size:72px;line-height:125%;font-family:'Myriad Pro Cond';-inkscape-font-specification:'Myriad Pro Cond Bold';letter-spacing:0px;word-spacing:0px;fill:#00acef;fill-opacity:1;stroke:none"
         d="m 361.42008,310.42793 c 0.15147,-3.76193 -0.58352,-7.10988 -2.20498,-10.04387 -1.6215,-2.93393 -5.03845,-4.48191 -10.25086,-4.64394 -2.50648,0.0435 -4.71145,0.35253 -6.61492,0.92699 -1.90348,0.57452 -3.37046,1.15352 -4.40094,1.73697 l 1.72798,6.40792 c 1.06947,-0.65396 2.18846,-1.16396 3.35695,-1.52998 1.16848,-0.36597 2.44946,-0.55196 3.84295,-0.55799 1.68747,0.0255 2.93845,0.47852 3.75295,1.35898 0.81448,0.88052 1.21947,2.0355 1.21499,3.46496 l 0,0.79199 c -4.16846,-0.003 -7.85541,1.029 -11.06086,3.09596 -3.20546,2.06699 -4.89444,5.40294 -5.06693,10.00787 0.054,3.15296 0.93598,5.70293 2.64596,7.6499 1.70998,1.94697 3.92394,2.94896 6.64192,3.00596 1.56146,-0.002 3.01044,-0.3405 4.34694,-1.01699 1.33647,-0.67649 2.47945,-1.68147 3.42896,-3.01496 l 0.21599,0 0.504,3.45596 8.42389,0 c -0.17853,-1.19999 -0.30753,-2.48997 -0.387,-3.86995 -0.0795,-1.37998 -0.11852,-2.77796 -0.11699,-4.19395 z m -9.28789,10.07987 c -10e-6,0.32101 -0.018,0.615 -0.054,0.88199 -0.036,0.267 -0.09,0.525 -0.162,0.77399 -0.34652,1.03949 -0.87751,1.80448 -1.59298,2.29497 -0.71551,0.4905 -1.4805,0.73349 -2.29497,0.72899 -0.77101,0.018 -1.51499,-0.34199 -2.23197,-1.07999 -0.71701,-0.73798 -1.101,-1.96196 -1.15199,-3.67195 0.11849,-2.38946 0.97948,-4.00043 2.58297,-4.83294 1.60346,-0.83247 3.23844,-1.23746 4.90493,-1.21498 z"
         id="path4231"
         inkscape:connector-curvature="0" />
      <path
         style="font-style:normal;font-variant:normal;font-weight:bold;font-stretch:normal;font-size:72px;line-height:125%;font-family:'Myriad Pro Cond';-inkscape-font-specification:'Myriad Pro Cond Bold';letter-spacing:0px;word-spacing:0px;fill:#00acef;fill-opacity:1;stroke:none"
         d="m 369.69136,290.12419 0,6.19192 -4.17595,0 0,6.69591 4.17595,0 0,16.63179 c 0.006,2.72847 0.26399,4.86744 0.77399,6.41692 0.50999,1.54948 1.23598,2.77046 2.17797,3.66295 0.86998,0.78599 1.88397,1.35598 3.04196,1.70998 1.15798,0.35399 2.42396,0.52799 3.79795,0.52199 1.22997,-0.005 2.33396,-0.0675 3.31196,-0.189 0.97797,-0.12149 1.79396,-0.27449 2.44797,-0.45899 l -0.072,-7.3439 c -0.42451,0.072 -0.83551,0.126 -1.23298,0.16199 -0.39752,0.036 -0.82651,0.054 -1.28699,0.054 -0.9345,0.0435 -1.74749,-0.29549 -2.43897,-1.01699 -0.6915,-0.72148 -1.0545,-2.08646 -1.08898,-4.09494 l 0,-16.0558 6.91191,0 0,-6.69591 -6.91191,0 0,-9.14388 z"
         id="path4233"
         inkscape:connector-curvature="0" />
      <path
         style="font-style:normal;font-variant:normal;font-weight:bold;font-stretch:normal;font-size:72px;line-height:125%;font-family:'Myriad Pro Cond';-inkscape-font-specification:'Myriad Pro Cond Bold';letter-spacing:0px;word-spacing:0px;fill:#00acef;fill-opacity:1;stroke:none"
         d="m 414.94644,317.26784 c 0.075,-0.48748 0.14097,-1.11447 0.198,-1.88098 0.057,-0.76647 0.087,-1.77145 0.09,-3.01496 -0.0255,-5.3894 -1.07252,-9.51434 -3.14096,-12.37484 -2.0685,-2.86043 -5.00546,-4.30341 -8.81089,-4.32894 -4.05296,0.0465 -7.39492,1.71751 -10.02587,5.01294 -2.63097,3.29548 -3.99295,7.93642 -4.08595,13.92282 0.018,5.54243 1.29598,9.81138 3.83395,12.80683 2.53796,2.99546 6.22791,4.51044 11.06986,4.54494 1.79396,-0.007 3.53393,-0.1545 5.21993,-0.44099 1.68596,-0.2865 3.13794,-0.66749 4.35595,-1.14299 l -1.22399,-6.76791 c -0.86851,0.3 -1.8675,0.564 -2.99696,0.79199 -1.12951,0.228 -2.36249,0.348 -3.69895,0.35999 -2.09999,0.03 -3.83997,-0.53398 -5.21994,-1.69197 -1.37999,-1.15798 -2.11198,-3.08995 -2.19597,-5.79593 z m -16.63179,-6.62391 c 0.0255,-1.87946 0.38849,-3.66443 1.08899,-5.35494 0.70048,-1.69045 1.80146,-2.59343 3.30296,-2.70896 1.39346,0.0525 2.40445,0.82952 3.03296,2.33097 0.62847,1.5015 0.93747,3.41248 0.92699,5.73293 z"
         id="path4235"
         inkscape:connector-curvature="0" />
      <path
         style="font-style:normal;font-variant:normal;font-weight:bold;font-stretch:normal;font-size:72px;line-height:125%;font-family:'Myriad Pro Cond';-inkscape-font-specification:'Myriad Pro Cond Bold';letter-spacing:0px;word-spacing:0px;fill:#00acef;fill-opacity:1;stroke:none"
         d="m 430.43578,330.01168 c 1.02898,0.59099 2.33696,1.08298 3.92394,1.47598 1.58698,0.39299 3.32695,0.59699 5.21994,0.61199 5.12692,-0.1425 9.02086,-1.60348 11.68185,-4.38294 2.66094,-2.77946 3.99892,-6.02242 4.01395,-9.72888 -0.0495,-3.14094 -0.81452,-5.71491 -2.29497,-7.7219 -1.48051,-2.00695 -3.37948,-3.39293 -5.69693,-4.15795 l 0,-0.14399 c 2.10895,-0.99596 3.75893,-2.40595 4.94994,-4.22995 1.19096,-1.82394 1.79695,-3.91792 1.81797,-6.28192 -0.003,-3.08542 -1.04101,-5.71638 -3.11396,-7.8929 -2.07299,-2.17642 -5.16295,-3.31341 -9.26988,-3.41095 -1.98148,0.0256 -3.83246,0.28054 -5.55293,0.76499 -1.72048,0.48454 -3.08546,1.04553 -4.09494,1.68298 l 1.29598,7.1279 c 0.86698,-0.58195 1.79697,-1.03794 2.78996,-1.36798 0.99298,-0.32995 2.03097,-0.49795 3.11396,-0.50399 1.67397,0.0135 2.98795,0.49053 3.94195,1.43098 0.95397,0.94053 1.43997,2.26351 1.45798,3.96895 -0.11101,2.232 -0.987,3.79798 -2.62796,4.69794 -1.64099,0.90002 -3.38097,1.35001 -5.21994,1.34998 l -0.93598,0 0,6.91191 1.29598,0 c 2.41046,0.0165 4.44743,0.61351 6.11092,1.79098 1.66346,1.1775 2.53045,3.05248 2.60097,5.62493 -0.009,2.01448 -0.62101,3.63746 -1.83598,4.86893 -1.215,1.23149 -2.97897,1.86449 -5.29193,1.89898 -1.24499,-0.007 -2.48098,-0.17249 -3.70795,-0.49499 -1.22699,-0.32249 -2.31898,-0.75749 -3.27596,-1.30499 z"
         id="path4237"
         inkscape:connector-curvature="0" />
    </g>
    <g
       style="font-style:normal;font-variant:normal;font-weight:normal;font-stretch:normal;font-size:40px;line-height:125%;font-family:'Myriad Pro';-inkscape-font-specification:'Myriad Pro';letter-spacing:0px;word-spacing:0px;fill:#4e534e;fill-opacity:1;stroke:none"
       id="Crown"
       transform="matrix(0.13434475,0,0,0.13434475,475.82988,261.52186)">
      <circle
         style="fill:#4e534e;fill-opacity:1"
         cx="105"
         cy="112"
         id="circle4"
         r="8.6000004" />
      <circle
         style="fill:#4e534e;fill-opacity:1"
         cx="182"
         cy="95"
         id="circle6"
         r="8.6000004" />
      <path
         style="fill:#4e534e;fill-opacity:1"
         d="m 412.7,39.522 c 10.872,16.794 18.063,35.141 3,55 -13.565,-4.295 -18.154,-20.093 -21,-38 l -26,47 c 16.31,-7.443 31.082,-15.262 42,-1.522 -16.575,22.95 -62.557,49.67 -76.406,11.272 1.448,-2.147 2.57,-4.648 3.219,-7.406 1.362,-5.795 0.396,-11.507 -2.25,-15.75 11.794,-30.673 27.828,-20.376 36.906,-5.719 0.546,-16.316 2.55,-38.864 -32.094,-17.406 7.512,-17.968 4.772,-48.205 1.656,-48.938 -3.117,-0.732 -19.065,25.129 -20.344,44.563 -21.458,-34.644 -29.721,-13.57 -36.5,1.281 14.657,-9.078 33.636,-11.153 30.531,21.563 -4.259,2.62 -7.7,7.298 -9.063,13.094 -0.644,2.739 -0.77,5.448 -0.438,8 C 266.7,120 256.7,110 236.7,70 l 0,-17.494 c 2,-0.506 2,-1.506 2.5,-3.5 19.124,-0.11 25.949,11.557 33.5,23.516 l 0,-53 C 265.26,33.125 256.668,42.855 239.2,42.006 238.7,40 238.7,39 236.7,38.506 239.41,20.26 246.881,12.265 264.7,3.522 L 231,3.506 l 0,0 -0.15,0 -0.15,0 0,0 -33.7,0.016 c 17.819,8.744 25.29,16.738 28,34.984 -2,0.494 -2,1.494 -2.5,3.5 -17.468,0.849 -26.061,-8.881 -33.5,-22.484 l 0,53 C 196.55,60.563 203.376,48.897 222.5,49.006 223,51 223,52 225,52.506 L 225,70 c -20,40 -30,50 -69.219,36.553 0.332,-2.552 0.206,-5.261 -0.438,-8 -1.362,-5.795 -4.803,-10.474 -9.063,-13.094 -3.105,-32.715 15.874,-30.641 30.531,-21.563 -6.78,-14.851 -15.042,-35.925 -36.5,-1.281 -1.279,-19.433 -17.227,-45.295 -20.344,-44.563 -3.117,0.733 -5.856,30.97 1.656,48.938 -34.644,-21.458 -32.64,1.09 -32.094,17.406 9.079,-14.657 25.112,-24.954 36.906,5.719 -2.646,4.243 -3.612,9.955 -2.25,15.75 0.648,2.758 1.77,5.259 3.219,7.406 C 113.557,151.67 67.575,124.95 51,102 61.918,88.26 76.69,96.079 93,103.522 l -26,-47 c -2.846,17.907 -7.435,33.705 -21,38 -15.063,-19.859 -7.873,-38.206 3,-55 l -35,20 67,115 c 43.636,-28.458 96.889,-41.869 149.7,-41.018 l 0,0.002 c 0.05,-0.001 0.1,0 0.149,-0.001 0.051,0.001 0.101,0 0.15,0.001 l 0,-0.002 c 52.811,-0.851 106.065,12.56 149.7,41.018 l 67,-115 -34.999,-20 z"
         id="path8"
         inkscape:connector-curvature="0" />
      <circle
         style="fill:#4e534e;fill-opacity:1"
         cx="356.70001"
         cy="112"
         id="circle10"
         r="8.6000004" />
      <circle
         style="fill:#4e534e;fill-opacity:1"
         cx="279.70001"
         cy="95"
         id="circle12"
         r="8.6000004" />
    </g>
    <path
       style="font-style:normal;font-variant:normal;font-weight:normal;font-stretch:normal;font-size:40px;line-height:125%;font-family:'Myriad Pro';-inkscape-font-specification:'Myriad Pro';letter-spacing:0px;word-spacing:0px;fill:#4e534e;fill-opacity:1;stroke:none"
       d="m 506.86352,283.89321 -0.0403,0 -21.18617,0 0,47.15501 2.28386,0 c 0,0 3.35862,-8.86675 3.35862,-9.53848 0,-0.18701 -0.26869,-0.26869 -1.07476,-0.26869 l 0,-4.7022 4.70207,0 0,4.97089 -1.07476,0 3.49296,9.0011 3.49297,-9.0011 -1.07476,0 0,-4.97089 4.70207,0 0,4.97089 -1.07476,0 3.45266,8.89739 0,0.10371 0.02,-0.052 0.0202,0.052 0,-0.10371 3.45266,-8.89739 -1.07476,0 0,-4.97089 4.70207,0 0,4.97089 -1.07476,0 3.49296,9.0011 3.49296,-9.0011 -1.07475,0 0,-4.97089 4.70206,0 0,4.7022 c -0.80607,0 -1.07475,0.0817 -1.07475,0.26869 0,0.67173 3.35861,9.53848 3.35861,9.53848 l 2.28386,0 0,-47.15501 -21.18603,0 z m -18.94261,31.43654 c -0.66742,0 -1.2091,-0.54154 -1.2091,-1.2091 0,-0.66729 0.54168,-1.20911 1.2091,-1.20911 0.66743,0 1.2091,0.54182 1.2091,1.20911 0,0.66756 -0.54167,1.2091 -1.2091,1.2091 z m 0,-9.53848 c -0.66742,0 -1.2091,-0.54154 -1.2091,-1.2091 0,-0.66729 0.54168,-1.2091 1.2091,-1.2091 0.66743,0 1.2091,0.54181 1.2091,1.2091 0,0.66756 -0.54167,1.2091 -1.2091,1.2091 z m 0,-9.26965 c -0.66742,0 -1.2091,-0.54168 -1.2091,-1.2091 0,-0.66743 0.54168,-1.20911 1.2091,-1.20911 0.66743,0 1.2091,0.54168 1.2091,1.20911 0,0.66742 -0.54167,1.2091 -1.2091,1.2091 z m 0,-9.0011 c -0.66742,0 -1.2091,-0.54168 -1.2091,-1.2091 0,-0.66743 0.54168,-1.2091 1.2091,-1.2091 0.66743,0 1.2091,0.54167 1.2091,1.2091 0,0.66742 -0.54167,1.2091 -1.2091,1.2091 z m 6.98593,24.18192 -4.70207,0 0,-4.70206 4.70207,0 0,4.70206 z m 0,-9.53848 -4.70207,0 0,-4.29903 4.70207,0 0,4.29903 z m 0,-9.1353 -4.70207,0 0,-4.29904 4.70207,0 0,4.29904 z m 2.4182,22.30109 c -0.66742,0 -1.2091,-0.54154 -1.2091,-1.2091 0,-0.66729 0.54168,-1.20911 1.2091,-1.20911 0.66743,0 1.20911,0.54182 1.20911,1.20911 0,0.66756 -0.54168,1.2091 -1.20911,1.2091 z m 0,-9.53848 c -0.66742,0 -1.2091,-0.54154 -1.2091,-1.2091 0,-0.66729 0.54168,-1.2091 1.2091,-1.2091 0.66743,0 1.20911,0.54181 1.20911,1.2091 0,0.66756 -0.54168,1.2091 -1.20911,1.2091 z m 0,-9.26965 c -0.66742,0 -1.2091,-0.54168 -1.2091,-1.2091 0,-0.66743 0.54168,-1.20911 1.2091,-1.20911 0.66743,0 1.20911,0.54168 1.20911,1.20911 0,0.66742 -0.54168,1.2091 -1.20911,1.2091 z m 0,-9.0011 c -0.66742,0 -1.2091,-0.54168 -1.2091,-1.2091 0,-0.66743 0.54168,-1.2091 1.2091,-1.2091 0.66743,0 1.20911,0.54167 1.20911,1.2091 0,0.66742 -0.54168,1.2091 -1.20911,1.2091 z m 7.12028,24.18192 -4.70207,0 0,-4.70206 4.70207,0 0,4.70206 z m 0,-9.53848 -4.70207,0 0,-4.29903 4.70207,0 0,4.29903 z m 0,-9.1353 -4.70207,0 0,-4.29904 4.70207,0 0,4.29904 z m 2.39805,22.30015 c -0.65789,-0.0109 -1.18895,-0.54732 -1.18895,-1.20803 0,-0.66044 0.53093,-1.19714 1.18895,-1.20803 0.65802,0.0109 1.18909,0.54759 1.18909,1.20803 -1.4e-4,0.66057 -0.53107,1.19715 -1.18909,1.20803 z m 0,-9.53848 c -0.65789,-0.0109 -1.18895,-0.54732 -1.18895,-1.20803 0,-0.66043 0.53093,-1.19714 1.18895,-1.20802 0.65802,0.0109 1.18909,0.54759 1.18909,1.20802 -1.4e-4,0.66058 -0.53107,1.19715 -1.18909,1.20803 z m 0,-9.26965 c -0.65789,-0.0109 -1.18895,-0.54746 -1.18895,-1.20816 0,-0.66058 0.53093,-1.19728 1.18895,-1.20817 0.65802,0.0109 1.18909,0.54759 1.18909,1.20817 -1.4e-4,0.66057 -0.53107,1.19728 -1.18909,1.20816 z m 0,-9.0011 c -0.65789,-0.0109 -1.18895,-0.54745 -1.18895,-1.20816 0,-0.66058 0.53093,-1.19728 1.18895,-1.20816 0.65802,0.0109 1.18909,0.54758 1.18909,1.20816 -1.4e-4,0.66057 -0.53107,1.19728 -1.18909,1.20816 z m 7.10012,24.18286 -4.70207,0 0,-4.70206 4.70207,0 0,4.70206 z m 0,-9.53848 -4.70207,0 0,-4.29903 4.70207,0 0,4.29903 z m 0,-9.1353 -4.70207,0 0,-4.29904 4.70207,0 0,4.29904 z m 2.41821,22.30109 c -0.66743,0 -1.20911,-0.54154 -1.20911,-1.2091 0,-0.66729 0.54168,-1.20911 1.20911,-1.20911 0.66742,0 1.2091,0.54182 1.2091,1.20911 0,0.66756 -0.54168,1.2091 -1.2091,1.2091 z m 0,-9.53848 c -0.66743,0 -1.20911,-0.54154 -1.20911,-1.2091 0,-0.66729 0.54168,-1.2091 1.20911,-1.2091 0.66742,0 1.2091,0.54181 1.2091,1.2091 0,0.66756 -0.54168,1.2091 -1.2091,1.2091 z m 0,-9.26965 c -0.66743,0 -1.20911,-0.54168 -1.20911,-1.2091 0,-0.66743 0.54168,-1.20911 1.20911,-1.20911 0.66742,0 1.2091,0.54168 1.2091,1.20911 0,0.66742 -0.54168,1.2091 -1.2091,1.2091 z m 0,-9.0011 c -0.66743,0 -1.20911,-0.54168 -1.20911,-1.2091 0,-0.66743 0.54168,-1.2091 1.20911,-1.2091 0.66742,0 1.2091,0.54167 1.2091,1.2091 0,0.66742 -0.54168,1.2091 -1.2091,1.2091 z m 7.12027,24.18192 -4.70207,0 0,-4.70206 4.70207,0 0,4.70206 z m 0,-9.53848 -4.70207,0 0,-4.29903 4.70207,0 0,4.29903 z m 0,-9.1353 -4.70207,0 0,-4.29904 4.70207,0 0,4.29904 z m 2.28386,22.30109 c -0.66743,0 -1.2091,-0.54154 -1.2091,-1.2091 0,-0.66729 0.54167,-1.20911 1.2091,-1.20911 0.66742,0 1.2091,0.54182 1.2091,1.20911 0,0.66756 -0.54168,1.2091 -1.2091,1.2091 z m 0,-9.53848 c -0.66743,0 -1.2091,-0.54154 -1.2091,-1.2091 0,-0.66729 0.54167,-1.2091 1.2091,-1.2091 0.66742,0 1.2091,0.54181 1.2091,1.2091 0,0.66756 -0.54168,1.2091 -1.2091,1.2091 z m 0,-9.26965 c -0.66743,0 -1.2091,-0.54168 -1.2091,-1.2091 0,-0.66743 0.54167,-1.20911 1.2091,-1.20911 0.66742,0 1.2091,0.54168 1.2091,1.20911 0,0.66742 -0.54168,1.2091 -1.2091,1.2091 z m 0,-9.0011 c -0.66743,0 -1.2091,-0.54168 -1.2091,-1.2091 0,-0.66743 0.54167,-1.2091 1.2091,-1.2091 0.66742,0 1.2091,0.54167 1.2091,1.2091 0,0.66742 -0.54168,1.2091 -1.2091,1.2091 z"
       id="Portcullis"
       inkscape:connector-curvature="0" />
    <path
       style="font-style:normal;font-variant:normal;font-weight:normal;font-stretch:normal;font-size:40px;line-height:125%;font-family:'Myriad Pro';-inkscape-font-specification:'Myriad Pro';letter-spacing:0px;word-spacing:0px;fill:none;stroke:#4e534e;stroke-width:0.76576507;stroke-miterlimit:10;stroke-opacity:1"
       d="m 533.89368,289.39786 c -0.007,0 -0.0134,5.4e-4 -0.0201,5.4e-4 -1.81769,0 -3.29145,-1.47363 -3.29145,-3.29145"
       id="path17"
       stroke-miterlimit="10"
       inkscape:connector-curvature="0" />
    <path
       style="font-style:normal;font-variant:normal;font-weight:normal;font-stretch:normal;font-size:40px;line-height:125%;font-family:'Myriad Pro';-inkscape-font-specification:'Myriad Pro';letter-spacing:0px;word-spacing:0px;fill:none;stroke:#4e534e;stroke-width:0.76576507;stroke-miterlimit:10;stroke-opacity:1"
       d="m 533.89368,289.39786 c 1.80855,-0.0109 3.2713,-1.47981 3.2713,-3.29091 0,-1.81782 -1.47363,-3.29145 -3.29145,-3.29145 -1.81769,0 -3.29145,1.47363 -3.29145,3.29145"
       id="path19"
       stroke-miterlimit="10"
       inkscape:connector-curvature="0" />
    <line
       style="font-style:normal;font-variant:normal;font-weight:normal;font-stretch:normal;font-size:40px;line-height:125%;font-family:'Myriad Pro';-inkscape-font-specification:'Myriad Pro';letter-spacing:0px;word-spacing:0px;fill:none;stroke:#4e534e;stroke-width:0.76576507;stroke-opacity:1"
       id="line21"
       x1="532.48303"
       x2="530.58209"
       y1="286.10696"
       y2="286.10696" />
    <line
       style="font-style:normal;font-variant:normal;font-weight:normal;font-stretch:normal;font-size:40px;line-height:125%;font-family:'Myriad Pro';-inkscape-font-specification:'Myriad Pro';letter-spacing:0px;word-spacing:0px;fill:none;stroke:#4e534e;stroke-width:0.76576507;stroke-opacity:1"
       id="line23"
       x1="530.58209"
       x2="527.98248"
       y1="286.10696"
       y2="286.10696" />
    <path
       style="font-style:normal;font-variant:normal;font-weight:normal;font-stretch:normal;font-size:40px;line-height:125%;font-family:'Myriad Pro';-inkscape-font-specification:'Myriad Pro';letter-spacing:0px;word-spacing:0px;fill:none;stroke:#4e534e;stroke-width:0.76576507;stroke-miterlimit:10;stroke-opacity:1"
       d="m 533.89368,292.89136 -1.90769,0 c -0.46,0 -0.83294,0.37294 -0.83294,0.83294 l 0,5.45439 c 0,0.46013 0.37294,0.83294 0.83294,0.83294 l 1.90769,0"
       id="path25"
       stroke-miterlimit="10"
       inkscape:connector-curvature="0" />
    <path
       style="font-style:normal;font-variant:normal;font-weight:normal;font-stretch:normal;font-size:40px;line-height:125%;font-family:'Myriad Pro';-inkscape-font-specification:'Myriad Pro';letter-spacing:0px;word-spacing:0px;fill:none;stroke:#4e534e;stroke-width:0.76576507;stroke-miterlimit:10;stroke-opacity:1"
       d="m 533.89368,300.01163 1.93457,0 c 0.46013,0 0.83293,-0.37281 0.83293,-0.83294 l 0,-5.45439 c 0,-0.46 -0.3728,-0.83294 -0.83293,-0.83294 l -1.93457,0"
       id="path27"
       stroke-miterlimit="10"
       inkscape:connector-curvature="0" />
    <line
       style="font-style:normal;font-variant:normal;font-weight:normal;font-stretch:normal;font-size:40px;line-height:125%;font-family:'Myriad Pro';-inkscape-font-specification:'Myriad Pro';letter-spacing:0px;word-spacing:0px;fill:none;stroke:#4e534e;stroke-width:0.76576507;stroke-opacity:1"
       id="line29"
       x1="533.89368"
       x2="533.89368"
       y1="292.89136"
       y2="293.89896" />
    <line
       style="font-style:normal;font-variant:normal;font-weight:normal;font-stretch:normal;font-size:40px;line-height:125%;font-family:'Myriad Pro';-inkscape-font-specification:'Myriad Pro';letter-spacing:0px;word-spacing:0px;fill:none;stroke:#4e534e;stroke-width:0.76576507;stroke-opacity:1"
       id="line31"
       x1="533.89368"
       x2="533.89368"
       y1="292.89136"
       y2="289.39786" />
    <line
       style="font-style:normal;font-variant:normal;font-weight:normal;font-stretch:normal;font-size:40px;line-height:125%;font-family:'Myriad Pro';-inkscape-font-specification:'Myriad Pro';letter-spacing:0px;word-spacing:0px;fill:none;stroke:#4e534e;stroke-width:0.76576507;stroke-opacity:1"
       id="line33"
       x1="533.89368"
       x2="533.89368"
       y1="289.39786"
       y2="288.39081" />
    <path
       style="font-style:normal;font-variant:normal;font-weight:normal;font-stretch:normal;font-size:40px;line-height:125%;font-family:'Myriad Pro';-inkscape-font-specification:'Myriad Pro';letter-spacing:0px;word-spacing:0px;fill:none;stroke:#4e534e;stroke-width:0.76576507;stroke-miterlimit:10;stroke-opacity:1"
       d="m 533.89368,310.94729 -1.90769,0 c -0.46,0 -0.83294,-0.37294 -0.83294,-0.83293 l 0,-5.4544 c 0,-0.46 0.37294,-0.8328 0.83294,-0.8328 l 1.90769,0"
       id="path35"
       stroke-miterlimit="10"
       inkscape:connector-curvature="0" />
    <path
       style="font-style:normal;font-variant:normal;font-weight:normal;font-stretch:normal;font-size:40px;line-height:125%;font-family:'Myriad Pro';-inkscape-font-specification:'Myriad Pro';letter-spacing:0px;word-spacing:0px;fill:none;stroke:#4e534e;stroke-width:0.76576507;stroke-miterlimit:10;stroke-opacity:1"
       d="m 533.89368,310.94729 1.93457,0 c 0.46013,0 0.83293,-0.37294 0.83293,-0.83293 l 0,-5.4544 c 0,-0.46 -0.3728,-0.8328 -0.83293,-0.8328 l -1.93457,0"
       id="path37"
       stroke-miterlimit="10"
       inkscape:connector-curvature="0" />
    <line
       style="font-style:normal;font-variant:normal;font-weight:normal;font-stretch:normal;font-size:40px;line-height:125%;font-family:'Myriad Pro';-inkscape-font-specification:'Myriad Pro';letter-spacing:0px;word-spacing:0px;fill:none;stroke:#4e534e;stroke-width:0.76576507;stroke-opacity:1"
       id="line39"
       x1="533.89368"
       x2="533.89368"
       y1="300.01163"
       y2="299.32648" />
    <line
       style="font-style:normal;font-variant:normal;font-weight:normal;font-stretch:normal;font-size:40px;line-height:125%;font-family:'Myriad Pro';-inkscape-font-specification:'Myriad Pro';letter-spacing:0px;word-spacing:0px;fill:none;stroke:#4e534e;stroke-width:0.76576507;stroke-opacity:1"
       id="line41"
       x1="533.89368"
       x2="533.89368"
       y1="300.01163"
       y2="303.82703" />
    <line
       style="font-style:normal;font-variant:normal;font-weight:normal;font-stretch:normal;font-size:40px;line-height:125%;font-family:'Myriad Pro';-inkscape-font-specification:'Myriad Pro';letter-spacing:0px;word-spacing:0px;fill:none;stroke:#4e534e;stroke-width:0.76576507;stroke-opacity:1"
       id="line43"
       x1="533.89368"
       x2="533.89368"
       y1="304.83463"
       y2="303.82703" />
    <path
       style="font-style:normal;font-variant:normal;font-weight:normal;font-stretch:normal;font-size:40px;line-height:125%;font-family:'Myriad Pro';-inkscape-font-specification:'Myriad Pro';letter-spacing:0px;word-spacing:0px;fill:none;stroke:#4e534e;stroke-width:0.76576507;stroke-miterlimit:10;stroke-opacity:1"
       d="m 533.89368,314.69551 -1.90769,0 c -0.46,0 -0.83294,0.37294 -0.83294,0.83294 l 0,5.4544 c 0,0.46013 0.37294,0.83293 0.83294,0.83293 l 1.90769,0"
       id="path45"
       stroke-miterlimit="10"
       inkscape:connector-curvature="0" />
    <path
       style="font-style:normal;font-variant:normal;font-weight:normal;font-stretch:normal;font-size:40px;line-height:125%;font-family:'Myriad Pro';-inkscape-font-specification:'Myriad Pro';letter-spacing:0px;word-spacing:0px;fill:none;stroke:#4e534e;stroke-width:0.76576507;stroke-miterlimit:10;stroke-opacity:1"
       d="m 533.89368,314.69551 1.93457,0 c 0.46013,0 0.83293,0.37294 0.83293,0.83294 l 0,5.4544 c 0,0.46013 -0.3728,0.83293 -0.83293,0.83293 l -1.93457,0"
       id="path47"
       stroke-miterlimit="10"
       inkscape:connector-curvature="0" />
    <line
       style="font-style:normal;font-variant:normal;font-weight:normal;font-stretch:normal;font-size:40px;line-height:125%;font-family:'Myriad Pro';-inkscape-font-specification:'Myriad Pro';letter-spacing:0px;word-spacing:0px;fill:none;stroke:#4e534e;stroke-width:0.76576507;stroke-opacity:1"
       id="line49"
       x1="533.89368"
       x2="533.89368"
       y1="314.69553"
       y2="315.70309" />
    <line
       style="font-style:normal;font-variant:normal;font-weight:normal;font-stretch:normal;font-size:40px;line-height:125%;font-family:'Myriad Pro';-inkscape-font-specification:'Myriad Pro';letter-spacing:0px;word-spacing:0px;fill:none;stroke:#4e534e;stroke-width:0.76576507;stroke-opacity:1"
       id="line51"
       x1="533.89368"
       x2="533.89368"
       y1="314.69553"
       y2="310.9473" />
    <line
       style="font-style:normal;font-variant:normal;font-weight:normal;font-stretch:normal;font-size:40px;line-height:125%;font-family:'Myriad Pro';-inkscape-font-specification:'Myriad Pro';letter-spacing:0px;word-spacing:0px;fill:none;stroke:#4e534e;stroke-width:0.76576507;stroke-opacity:1"
       id="line53"
       x1="533.89368"
       x2="533.89368"
       y1="310.9473"
       y2="310.19498" />
    <path
       style="font-style:normal;font-variant:normal;font-weight:normal;font-stretch:normal;font-size:40px;line-height:125%;font-family:'Myriad Pro';-inkscape-font-specification:'Myriad Pro';letter-spacing:0px;word-spacing:0px;fill:none;stroke:#4e534e;stroke-width:0.76576507;stroke-miterlimit:10;stroke-opacity:1"
       d="m 533.89368,325.13464 c -0.007,0 -0.0134,-5.4e-4 -0.0201,-5.4e-4 -1.81769,0 -3.29145,1.47363 -3.29145,3.29145 0,1.81781 1.47376,3.29144 3.29145,3.29144 1.81782,0 3.29145,-1.47363 3.29145,-3.29144 0,-1.81097 -1.46275,-3.28003 -3.2713,-3.29091"
       id="path55"
       stroke-miterlimit="10"
       inkscape:connector-curvature="0" />
    <line
       style="font-style:normal;font-variant:normal;font-weight:normal;font-stretch:normal;font-size:40px;line-height:125%;font-family:'Myriad Pro';-inkscape-font-specification:'Myriad Pro';letter-spacing:0px;word-spacing:0px;fill:none;stroke:#4e534e;stroke-width:0.76576507;stroke-opacity:1"
       id="line57"
       x1="533.89368"
       x2="533.89368"
       y1="320.90225"
       y2="321.8158" />
    <line
       style="font-style:normal;font-variant:normal;font-weight:normal;font-stretch:normal;font-size:40px;line-height:125%;font-family:'Myriad Pro';-inkscape-font-specification:'Myriad Pro';letter-spacing:0px;word-spacing:0px;fill:none;stroke:#4e534e;stroke-width:0.76576507;stroke-opacity:1"
       id="line59"
       x1="533.89368"
       x2="533.89368"
       y1="325.13464"
       y2="326.41037" />
    <line
       style="font-style:normal;font-variant:normal;font-weight:normal;font-stretch:normal;font-size:40px;line-height:125%;font-family:'Myriad Pro';-inkscape-font-specification:'Myriad Pro';letter-spacing:0px;word-spacing:0px;fill:none;stroke:#4e534e;stroke-width:0.76576507;stroke-opacity:1"
       id="line61"
       x1="533.89368"
       x2="533.89368"
       y1="325.13464"
       y2="321.8158" />
    <path
       style="font-style:normal;font-variant:normal;font-weight:normal;font-stretch:normal;font-size:40px;line-height:125%;font-family:'Myriad Pro';-inkscape-font-specification:'Myriad Pro';letter-spacing:0px;word-spacing:0px;fill:none;stroke:#4e534e;stroke-width:0.76576507;stroke-opacity:1"
       d="m 479.8132,282.8155 c -1.81782,0 -3.29144,1.47363 -3.29144,3.29145 0,1.8111 1.46288,3.28003 3.27129,3.29091 0.007,0 0.0134,5.4e-4 0.0202,5.4e-4 1.81782,0 3.29145,-1.47363 3.29145,-3.29145 0,-1.81782 -1.47363,-3.29145 -3.29145,-3.29145 z"
       id="path65"
       inkscape:connector-curvature="0" />
    <line
       style="font-style:normal;font-variant:normal;font-weight:normal;font-stretch:normal;font-size:40px;line-height:125%;font-family:'Myriad Pro';-inkscape-font-specification:'Myriad Pro';letter-spacing:0px;word-spacing:0px;fill:none;stroke:#4e534e;stroke-width:0.76576507;stroke-opacity:1"
       id="line67"
       x1="483.10464"
       x2="481.20367"
       y1="286.10696"
       y2="286.10696" />
    <line
       style="font-style:normal;font-variant:normal;font-weight:normal;font-stretch:normal;font-size:40px;line-height:125%;font-family:'Myriad Pro';-inkscape-font-specification:'Myriad Pro';letter-spacing:0px;word-spacing:0px;fill:none;stroke:#4e534e;stroke-width:0.76576507;stroke-opacity:1"
       id="line69"
       x1="485.70422"
       x2="483.10464"
       y1="286.10696"
       y2="286.10696" />
    <path
       style="font-style:normal;font-variant:normal;font-weight:normal;font-stretch:normal;font-size:40px;line-height:125%;font-family:'Myriad Pro';-inkscape-font-specification:'Myriad Pro';letter-spacing:0px;word-spacing:0px;fill:none;stroke:#4e534e;stroke-width:0.76576507;stroke-opacity:1"
       d="m 481.70075,292.89136 -1.9077,0 -1.93456,0 c -0.46,0 -0.83294,0.37294 -0.83294,0.83294 l 0,5.45439 c 0,0.46013 0.37294,0.83294 0.83294,0.83294 l 1.93456,0 1.9077,0 c 0.45999,0 0.83293,-0.37281 0.83293,-0.83294 l 0,-5.45439 c 0,-0.46 -0.37294,-0.83294 -0.83293,-0.83294 z"
       id="path71"
       inkscape:connector-curvature="0" />
    <line
       style="font-style:normal;font-variant:normal;font-weight:normal;font-stretch:normal;font-size:40px;line-height:125%;font-family:'Myriad Pro';-inkscape-font-specification:'Myriad Pro';letter-spacing:0px;word-spacing:0px;fill:none;stroke:#4e534e;stroke-width:0.76576507;stroke-opacity:1"
       id="line73"
       x1="479.79306"
       x2="479.79306"
       y1="289.39786"
       y2="288.39081" />
    <line
       style="font-style:normal;font-variant:normal;font-weight:normal;font-stretch:normal;font-size:40px;line-height:125%;font-family:'Myriad Pro';-inkscape-font-specification:'Myriad Pro';letter-spacing:0px;word-spacing:0px;fill:none;stroke:#4e534e;stroke-width:0.76576507;stroke-opacity:1"
       id="line75"
       x1="479.79306"
       x2="479.79306"
       y1="289.39786"
       y2="292.89136" />
    <line
       style="font-style:normal;font-variant:normal;font-weight:normal;font-stretch:normal;font-size:40px;line-height:125%;font-family:'Myriad Pro';-inkscape-font-specification:'Myriad Pro';letter-spacing:0px;word-spacing:0px;fill:none;stroke:#4e534e;stroke-width:0.76576507;stroke-opacity:1"
       id="line77"
       x1="479.79306"
       x2="479.79306"
       y1="293.89896"
       y2="292.89136" />
    <path
       style="font-style:normal;font-variant:normal;font-weight:normal;font-stretch:normal;font-size:40px;line-height:125%;font-family:'Myriad Pro';-inkscape-font-specification:'Myriad Pro';letter-spacing:0px;word-spacing:0px;fill:none;stroke:#4e534e;stroke-width:0.76576507;stroke-opacity:1"
       d="m 481.70075,303.82702 -1.9077,0 -1.93456,0 c -0.46,0 -0.83294,0.37281 -0.83294,0.8328 l 0,5.45454 c 0,0.45999 0.37294,0.83293 0.83294,0.83293 l 1.93456,0 1.9077,0 c 0.45999,0 0.83293,-0.37294 0.83293,-0.83293 l 0,-5.4544 c 0,-0.46 -0.37294,-0.83294 -0.83293,-0.83294 z"
       id="path79"
       inkscape:connector-curvature="0" />
    <line
       style="font-style:normal;font-variant:normal;font-weight:normal;font-stretch:normal;font-size:40px;line-height:125%;font-family:'Myriad Pro';-inkscape-font-specification:'Myriad Pro';letter-spacing:0px;word-spacing:0px;fill:none;stroke:#4e534e;stroke-width:0.76576507;stroke-opacity:1"
       id="line81"
       x1="479.79306"
       x2="479.79306"
       y1="300.01163"
       y2="303.82703" />
    <line
       style="font-style:normal;font-variant:normal;font-weight:normal;font-stretch:normal;font-size:40px;line-height:125%;font-family:'Myriad Pro';-inkscape-font-specification:'Myriad Pro';letter-spacing:0px;word-spacing:0px;fill:none;stroke:#4e534e;stroke-width:0.76576507;stroke-opacity:1"
       id="line83"
       x1="479.79306"
       x2="479.79306"
       y1="303.82703"
       y2="304.83463" />
    <line
       style="font-style:normal;font-variant:normal;font-weight:normal;font-stretch:normal;font-size:40px;line-height:125%;font-family:'Myriad Pro';-inkscape-font-specification:'Myriad Pro';letter-spacing:0px;word-spacing:0px;fill:none;stroke:#4e534e;stroke-width:0.76576507;stroke-opacity:1"
       id="line85"
       x1="479.79306"
       x2="479.79306"
       y1="300.01163"
       y2="299.32648" />
    <path
       style="font-style:normal;font-variant:normal;font-weight:normal;font-stretch:normal;font-size:40px;line-height:125%;font-family:'Myriad Pro';-inkscape-font-specification:'Myriad Pro';letter-spacing:0px;word-spacing:0px;fill:none;stroke:#4e534e;stroke-width:0.76576507;stroke-opacity:1"
       d="m 479.79305,321.81578 1.9077,0 c 0.45999,0 0.83293,-0.3728 0.83293,-0.83293 l 0,-5.4544 c 0,-0.46 -0.37294,-0.83294 -0.83293,-0.83294 l -1.9077,0"
       id="path87"
       inkscape:connector-curvature="0" />
    <path
       style="font-style:normal;font-variant:normal;font-weight:normal;font-stretch:normal;font-size:40px;line-height:125%;font-family:'Myriad Pro';-inkscape-font-specification:'Myriad Pro';letter-spacing:0px;word-spacing:0px;fill:none;stroke:#4e534e;stroke-width:0.76576507;stroke-opacity:1"
       d="m 479.79305,314.69551 -1.93456,0 c -0.46,0 -0.83294,0.37294 -0.83294,0.83294 l 0,5.4544 c 0,0.46013 0.37294,0.83293 0.83294,0.83293 l 1.93456,0"
       id="path89"
       inkscape:connector-curvature="0" />
    <line
       style="font-style:normal;font-variant:normal;font-weight:normal;font-stretch:normal;font-size:40px;line-height:125%;font-family:'Myriad Pro';-inkscape-font-specification:'Myriad Pro';letter-spacing:0px;word-spacing:0px;fill:none;stroke:#4e534e;stroke-width:0.76576507;stroke-opacity:1"
       id="line91"
       x1="479.79306"
       x2="479.79306"
       y1="310.19498"
       y2="310.9473" />
    <line
       style="font-style:normal;font-variant:normal;font-weight:normal;font-stretch:normal;font-size:40px;line-height:125%;font-family:'Myriad Pro';-inkscape-font-specification:'Myriad Pro';letter-spacing:0px;word-spacing:0px;fill:none;stroke:#4e534e;stroke-width:0.76576507;stroke-opacity:1"
       id="line93"
       x1="479.79306"
       x2="479.79306"
       y1="314.69553"
       y2="310.9473" />
    <line
       style="font-style:normal;font-variant:normal;font-weight:normal;font-stretch:normal;font-size:40px;line-height:125%;font-family:'Myriad Pro';-inkscape-font-specification:'Myriad Pro';letter-spacing:0px;word-spacing:0px;fill:none;stroke:#4e534e;stroke-width:0.76576507;stroke-opacity:1"
       id="line95"
       x1="479.79306"
       x2="479.79306"
       y1="314.69553"
       y2="315.70309" />
    <path
       style="font-style:normal;font-variant:normal;font-weight:normal;font-stretch:normal;font-size:40px;line-height:125%;font-family:'Myriad Pro';-inkscape-font-specification:'Myriad Pro';letter-spacing:0px;word-spacing:0px;fill:none;stroke:#4e534e;stroke-width:0.76576507;stroke-opacity:1"
       d="m 479.79305,325.13464 c -1.80841,0.0109 -3.27129,1.47994 -3.27129,3.29091 0,1.81781 1.47362,3.29144 3.29144,3.29144 1.81782,0 3.29145,-1.47363 3.29145,-3.29144 0,-1.81782 -1.47363,-3.29145 -3.29145,-3.29145 -0.007,0 -0.0134,5.4e-4 -0.0202,5.4e-4"
       id="path97"
       inkscape:connector-curvature="0" />
    <line
       style="font-style:normal;font-variant:normal;font-weight:normal;font-stretch:normal;font-size:40px;line-height:125%;font-family:'Myriad Pro';-inkscape-font-specification:'Myriad Pro';letter-spacing:0px;word-spacing:0px;fill:none;stroke:#4e534e;stroke-width:0.76576507;stroke-opacity:1"
       id="line99"
       x1="479.79306"
       x2="479.79306"
       y1="321.8158"
       y2="325.13464" />
    <line
       style="font-style:normal;font-variant:normal;font-weight:normal;font-stretch:normal;font-size:40px;line-height:125%;font-family:'Myriad Pro';-inkscape-font-specification:'Myriad Pro';letter-spacing:0px;word-spacing:0px;fill:none;stroke:#4e534e;stroke-width:0.76576507;stroke-opacity:1"
       id="line101"
       x1="479.79306"
       x2="479.79306"
       y1="321.8158"
       y2="320.90225" />
    <line
       style="font-style:normal;font-variant:normal;font-weight:normal;font-stretch:normal;font-size:40px;line-height:125%;font-family:'Myriad Pro';-inkscape-font-specification:'Myriad Pro';letter-spacing:0px;word-spacing:0px;fill:none;stroke:#4e534e;stroke-width:0.76576507;stroke-opacity:1"
       id="line103"
       x1="479.79306"
       x2="479.79306"
       y1="325.13464"
       y2="326.41037" />
    <path
       style="font-style:normal;font-variant:normal;font-weight:bold;font-stretch:normal;font-size:medium;line-height:125%;font-family:'Myriad Pro Cond';-inkscape-font-specification:'Myriad Pro Cond Bold';letter-spacing:0px;word-spacing:0px;fill:#4e534e;fill-opacity:1;stroke:none"
       d="m 558.40813,279.04463 -6.36,0 0,2.56 3.48,0 0,8.8 c -0.24,0.16 -0.84,0.32 -1.88,0.32 -3.24,0 -6.4,-2.68 -6.4,-11 0,-8.36 3.64,-11.04 7,-11.04 1.44,0 2.36,0.28 3.08,0.64 l 0.68,-2.64 c -0.8,-0.44 -2.12,-0.76 -3.8,-0.76 -4.76,0 -10.12,3.56 -10.16,14.08 -0.04,4.96 1.28,8.68 3.24,10.76 1.8,1.96 4,2.6 6.36,2.6 1.68,0 3.64,-0.44 4.76,-0.92 l 0,-13.4 z"
       id="path4247"
       inkscape:connector-curvature="0" />
    <path
       style="font-style:normal;font-variant:normal;font-weight:bold;font-stretch:normal;font-size:medium;line-height:125%;font-family:'Myriad Pro Cond';-inkscape-font-specification:'Myriad Pro Cond Bold';letter-spacing:0px;word-spacing:0px;fill:#4e534e;fill-opacity:1;stroke:none"
       d="m 571.83,285.04463 1.76,8.08 3.04,0 -6,-26.96 -3.4,0 -6.16,26.96 3,0 1.76,-8.08 6,0 z m -5.56,-2.48 1.4,-6.8 c 0.4,-1.84 0.8,-4.16 1.12,-6.2 l 0.12,0 c 0.32,2 0.68,4.24 1.08,6.16 l 1.4,6.84 -5.12,0 z"
       id="path4249"
       inkscape:connector-curvature="0" />
    <path
       style="font-style:normal;font-variant:normal;font-weight:bold;font-stretch:normal;font-size:medium;line-height:125%;font-family:'Myriad Pro Cond';-inkscape-font-specification:'Myriad Pro Cond Bold';letter-spacing:0px;word-spacing:0px;fill:#4e534e;fill-opacity:1;stroke:none"
       d="m 580.75,293.12463 3.08,0 0,-24.2 4.92,0 0,-2.76 -12.92,0 0,2.76 4.92,0 0,24.2 z"
       id="path4251"
       inkscape:connector-curvature="0" />
    <path
       style="font-style:normal;font-variant:normal;font-weight:bold;font-stretch:normal;font-size:medium;line-height:125%;font-family:'Myriad Pro Cond';-inkscape-font-specification:'Myriad Pro Cond Bold';letter-spacing:0px;word-spacing:0px;fill:#4e534e;fill-opacity:1;stroke:none"
       d="m 601.57063,277.72463 -6.76,0 0,-8.88 7.2,0 0,-2.68 -10.28,0 0,26.96 10.76,0 0,-2.68 -7.68,0 0,-10.12 6.76,0 0,-2.6 z"
       id="path4253"
       inkscape:connector-curvature="0" />
    <g
       style="font-style:normal;font-variant:normal;font-weight:normal;font-stretch:normal;font-size:40px;line-height:125%;font-family:'Times New Roman';-inkscape-font-specification:'Times New Roman';letter-spacing:0px;word-spacing:0px;fill:#4e534e;fill-opacity:1;stroke:none"
       id="text3185-1">
      <path
         style="font-style:normal;font-variant:normal;font-weight:bold;font-stretch:normal;font-family:'Myriad Pro Cond';-inkscape-font-specification:'Myriad Pro Cond Bold';fill:#4e534e;fill-opacity:1"
         d="m 545.16813,328.12463 3.08,0 0,-10.4 1.52,-2.6 5.52,13 3.32,0 -6.76,-15.44 6.6,-11.52 -3.44,0 -5,9.56 c -0.52,1.04 -1.08,2.12 -1.68,3.24 l -0.08,0 0,-12.8 -3.08,0 0,26.96 z"
         id="path4234"
         inkscape:connector-curvature="0" />
      <path
         style="font-style:normal;font-variant:normal;font-weight:bold;font-stretch:normal;font-family:'Myriad Pro Cond';-inkscape-font-specification:'Myriad Pro Cond Bold';fill:#4e534e;fill-opacity:1"
         d="m 571.18,312.72463 -6.76,0 0,-8.88 7.2,0 0,-2.68 -10.28,0 0,26.96 10.76,0 0,-2.68 -7.68,0 0,-10.12 6.76,0 0,-2.6 z"
         id="path4236"
         inkscape:connector-curvature="0" />
      <path
         style="font-style:normal;font-variant:normal;font-weight:bold;font-stretch:normal;font-family:'Myriad Pro Cond';-inkscape-font-specification:'Myriad Pro Cond Bold';fill:#4e534e;fill-opacity:1"
         d="m 585.32063,312.72463 -6.76,0 0,-8.88 7.2,0 0,-2.68 -10.28,0 0,26.96 10.76,0 0,-2.68 -7.68,0 0,-10.12 6.76,0 0,-2.6 z"
         id="path4238"
         inkscape:connector-curvature="0" />
      <path
         style="font-style:normal;font-variant:normal;font-weight:bold;font-stretch:normal;font-family:'Myriad Pro Cond';-inkscape-font-specification:'Myriad Pro Cond Bold';fill:#4e534e;fill-opacity:1"
         d="m 589.62125,328.12463 3.08,0 0,-11.04 c 0.44,0.04 0.84,0.04 1.36,0.04 2.4,0 4.92,-1 6.36,-3 1.04,-1.36 1.64,-3.04 1.64,-5.52 0,-2.36 -0.68,-4.32 -1.96,-5.6 -1.4,-1.36 -3.52,-1.96 -6,-1.96 -1.8,0 -3.24,0.2 -4.48,0.52 l 0,26.56 z m 3.08,-24.36 c 0.4,-0.12 1,-0.2 1.72,-0.2 3.44,0 4.56,2.48 4.56,5.24 0,3.8 -2.04,5.8 -5.04,5.8 -0.52,0 -0.88,-0.04 -1.24,-0.08 l 0,-10.76 z"
         id="path4240"
         inkscape:connector-curvature="0" />
      <path
         style="font-style:normal;font-variant:normal;font-weight:bold;font-stretch:normal;font-family:'Myriad Pro Cond';-inkscape-font-specification:'Myriad Pro Cond Bold';fill:#4e534e;fill-opacity:1"
         d="m 615.39875,312.72463 -6.76,0 0,-8.88 7.2,0 0,-2.68 -10.28,0 0,26.96 10.76,0 0,-2.68 -7.68,0 0,-10.12 6.76,0 0,-2.6 z"
         id="path4242"
         inkscape:connector-curvature="0" />
      <path
         style="font-style:normal;font-variant:normal;font-weight:bold;font-stretch:normal;font-family:'Myriad Pro Cond';-inkscape-font-specification:'Myriad Pro Cond Bold';fill:#4e534e;fill-opacity:1"
         d="m 619.69938,328.12463 3.08,0 0,-11.72 1.2,0 c 2.64,0 3.8,1.36 4.4,5.08 0.52,3.28 1.04,5.84 1.44,6.64 l 3.12,0 c -0.4,-0.84 -0.92,-3.12 -1.56,-6.8 -0.56,-3.52 -1.6,-5.44 -3.6,-6.04 l 0,-0.08 c 2.72,-1.28 4.32,-3.52 4.32,-6.96 0,-2.12 -0.56,-3.92 -1.88,-5.28 -1.4,-1.36 -3.4,-1.92 -6.08,-1.92 -1.52,0 -3.12,0.16 -4.44,0.52 l 0,26.56 z m 3.08,-24.44 c 0.4,-0.12 1,-0.16 1.6,-0.16 3.32,0.04 4.6,2 4.6,5.08 0,3.24 -1.96,5.4 -4.92,5.4 l -1.28,0 0,-10.32 z"
         id="path4244"
         inkscape:connector-curvature="0" />
    </g>
  </g>
</svg>
