<?xml version="1.0" encoding="UTF-8" standalone="no"?>
<!-- Created with Inkscape (http://www.inkscape.org/) -->

<svg
   xmlns:dc="http://purl.org/dc/elements/1.1/"
   xmlns:cc="http://creativecommons.org/ns#"
   xmlns:rdf="http://www.w3.org/1999/02/22-rdf-syntax-ns#"
   xmlns:svg="http://www.w3.org/2000/svg"
   xmlns="http://www.w3.org/2000/svg"
   xmlns:xlink="http://www.w3.org/1999/xlink"
   xmlns:sodipodi="http://sodipodi.sourceforge.net/DTD/sodipodi-0.dtd"
   xmlns:inkscape="http://www.inkscape.org/namespaces/inkscape"
   sodipodi:docname="gatekeeper-square.svg"
   inkscape:version="0.92.1 r15371"
   id="svg4951"
   version="1.1"
   viewBox="0 0 135.46668 135.46678"
   height="512.00043"
   width="512.00006">
  <sodipodi:namedview
     fit-margin-bottom="0"
     fit-margin-right="0"
     fit-margin-left="0"
     fit-margin-top="0"
     inkscape:window-maximized="1"
     inkscape:window-y="-8"
     inkscape:window-x="-8"
     inkscape:window-height="1017"
     inkscape:window-width="1920"
     units="px"
     showgrid="false"
     inkscape:current-layer="layer1"
     inkscape:document-units="mm"
     inkscape:cy="227.60587"
     inkscape:cx="88.640006"
     inkscape:zoom="0.7575"
     inkscape:pageshadow="2"
     inkscape:pageopacity="0.0"
     borderopacity="1.0"
     bordercolor="#666666"
     pagecolor="#ffffff"
     id="base">
    <inkscape:grid
       dotted="false"
       empspacing="1"
       originy="112.17988"
       originx="-12.669685"
       id="grid5751"
       type="xygrid" />
  </sodipodi:namedview>
  <defs
     id="defs4945">
    <linearGradient
       inkscape:collect="always"
       id="linearGradient7061">
      <stop
         style="stop-color:#0e0000;stop-opacity:1"
         offset="0"
         id="stop7057" />
      <stop
         style="stop-color:#00000e;stop-opacity:0"
         offset="1"
         id="stop7059" />
    </linearGradient>
    <linearGradient
       inkscape:collect="always"
       xlink:href="#linearGradient7061"
       id="linearGradient7063"
       x1="141.25412"
       y1="-71.419144"
       x2="505.98334"
       y2="316.31351"
       gradientUnits="userSpaceOnUse"
       gradientTransform="matrix(0.26458333,0,0,0.26458333,6.6410358,323.92976)" />
  </defs>
  <metadata
     id="metadata4948">
    <rdf:RDF>
      <cc:Work
         rdf:about="">
        <dc:format>image/svg+xml</dc:format>
        <dc:type
           rdf:resource="http://purl.org/dc/dcmitype/StillImage" />
        <dc:title></dc:title>
      </cc:Work>
    </rdf:RDF>
  </metadata>
  <g
     transform="translate(-12.669685,-273.71307)"
     id="layer1"
     inkscape:groupmode="layer"
     inkscape:label="Layer 1">
    <circle
       inkscape:export-ydpi="163.84"
       inkscape:export-xdpi="163.84"
       style="opacity:1;fill:#e6e6e6;fill-opacity:1;stroke:none;stroke-width:6.1052413;stroke-linecap:round;stroke-linejoin:round;stroke-miterlimit:4;stroke-dasharray:none;stroke-opacity:1;paint-order:fill markers stroke"
       id="circle4830"
       cx="80.403023"
       cy="341.44641"
       r="67.733337" />
    <path
       style="opacity:0.29200003;fill:url(#linearGradient7063);fill-opacity:1;stroke:none;stroke-width:2.10457969;stroke-linecap:round;stroke-linejoin:bevel;stroke-miterlimit:4;stroke-dasharray:none;stroke-opacity:1;paint-order:normal"
       d="m 59.335495,303.56408 c -14.581341,5e-5 -14.581452,-1.3e-4 -21.871534,12.62713 l -5.17e-4,5.2e-4 c -0.05651,0.0979 -7.289994,12.62765 -7.289994,12.62765 l -5.17e-4,5.2e-4 c -7.290537,12.62683 -7.290242,12.62807 5.17e-4,25.25427 l 7.290511,12.62714 c 2.804347,4.81133 4.540529,7.78595 6.417695,9.62938 0.05614,0.0574 0.112623,0.11364 0.168981,0.16898 0.05614,0.0574 0.11262,0.11364 0.168985,0.16899 0.05614,0.0574 0.112617,0.11363 0.168981,0.16898 0.05614,0.0574 0.112617,0.11363 0.168981,0.16898 0.05614,0.0574 0.11262,0.11363 0.168982,0.16898 0.05746,0.0588 0.115424,0.116 0.173117,0.1726 0.05497,0.0562 0.110175,0.11117 0.165364,0.16537 0.05615,0.0574 0.112615,0.11363 0.168982,0.16898 0.05614,0.0574 0.112614,0.11363 0.168981,0.16898 0.05615,0.0574 0.112617,0.11363 0.168982,0.16898 0.05614,0.0574 0.112617,0.11363 0.168984,0.16898 0.05578,0.057 0.111953,0.11294 0.167947,0.16795 0.05611,0.0574 0.112651,0.11364 0.168981,0.16898 0.05611,0.0574 0.112652,0.11365 0.168984,0.16899 0.05488,0.0561 0.110268,0.11119 0.165365,0.16536 0.05736,0.0587 0.115001,0.11654 0.172598,0.17312 0.05611,0.0574 0.112649,0.11365 0.168981,0.16898 0.05638,0.0577 0.113417,0.11391 0.170016,0.1695 0.05615,0.0574 0.112618,0.11363 0.168982,0.16898 0.05639,0.0577 0.112887,0.11442 0.1695,0.17001 0.05613,0.0574 0.112625,0.11365 0.168981,0.16899 0.05613,0.0574 0.112625,0.11364 0.168982,0.16898 0.05613,0.0574 0.112625,0.11365 0.168981,0.16898 0.05613,0.0574 0.112625,0.11365 0.168982,0.16898 0.05614,0.0574 0.112625,0.11365 0.168984,0.16898 0.05613,0.0574 0.112625,0.11365 0.168981,0.16899 0.05613,0.0574 0.112625,0.11364 0.168982,0.16898 0.05613,0.0574 0.112625,0.11365 0.168981,0.16898 0.05596,0.0572 0.112287,0.1133 0.168465,0.16847 0.05614,0.0574 0.11262,0.11363 0.168982,0.16898 0.05614,0.0574 0.112622,0.11363 0.168981,0.16898 0.05614,0.0574 0.11262,0.11363 0.168984,0.16898 0.05614,0.0574 0.112618,0.11363 0.168982,0.16898 0.05614,0.0574 0.112617,0.11364 0.168981,0.16899 0.05614,0.0574 0.11262,0.11363 0.168982,0.16898 0.05614,0.0574 0.112622,0.11363 0.168981,0.16898 0.05614,0.0574 0.11262,0.11363 0.168984,0.16898 0.05614,0.0574 0.112615,0.11363 0.168982,0.16898 0.05614,0.0574 0.112617,0.11364 0.168981,0.16899 0.05614,0.0574 0.112617,0.11363 0.168982,0.16898 0.05614,0.0574 0.112619,0.11363 0.168981,0.16898 0.05614,0.0574 0.112623,0.11363 0.168981,0.16898 0.05614,0.0574 0.11262,0.11364 0.168985,0.16898 0.05746,0.0588 0.115424,0.116 0.173114,0.1726 0.05497,0.0562 0.110178,0.11117 0.165364,0.16537 0.05615,0.0574 0.112618,0.11363 0.168984,0.16898 0.05614,0.0574 0.112615,0.11363 0.168982,0.16898 0.05614,0.0574 0.112614,0.11363 0.168981,0.16898 0.05615,0.0574 0.112615,0.11362 0.168982,0.16899 0.05578,0.057 0.111953,0.11294 0.167949,0.16794 0.05611,0.0574 0.112649,0.11364 0.168982,0.16898 0.05488,0.0561 0.11027,0.1112 0.165364,0.16537 0.05737,0.0587 0.115001,0.11653 0.172599,0.17312 0.05611,0.0574 0.112651,0.11364 0.168981,0.16898 0.05611,0.0574 0.112649,0.11365 0.168984,0.16898 0.05638,0.0577 0.113416,0.11391 0.170013,0.1695 0.05615,0.0574 0.112618,0.11363 0.168984,0.16898 0.05639,0.0577 0.112888,0.11443 0.169498,0.17002 0.05613,0.0574 0.112625,0.11364 0.168981,0.16898 0.05613,0.0574 0.112625,0.11365 0.168982,0.16898 0.05614,0.0574 0.112625,0.11365 0.168984,0.16898 0.05613,0.0574 0.112625,0.11364 0.168981,0.16898 0.05613,0.0574 0.112625,0.11365 0.168982,0.16899 0.05613,0.0574 0.112625,0.11364 0.168981,0.16898 0.05613,0.0574 0.112628,0.11365 0.168982,0.16898 0.05596,0.0572 0.112286,0.11328 0.168465,0.16846 0.05614,0.0574 0.11262,0.11364 0.168984,0.16899 0.05614,0.0574 0.112615,0.11363 0.168982,0.16898 0.05614,0.0574 0.112617,0.11363 0.168981,0.16898 0.05614,0.0574 0.112617,0.11363 0.168981,0.16898 0.05614,0.0574 0.11262,0.11362 0.168982,0.16898 0.05614,0.0574 0.112622,0.11364 0.168981,0.16899 0.05614,0.0574 0.11262,0.11363 0.168984,0.16898 0.05614,0.0574 0.112618,0.11363 0.168982,0.16898 0.05614,0.0574 0.112617,0.11363 0.168981,0.16898 0.05614,0.0574 0.11262,0.11362 0.168982,0.16898 0.05614,0.0574 0.112622,0.11364 0.168981,0.16898 0.05614,0.0574 0.11262,0.11364 0.168984,0.16899 0.05614,0.0574 0.112615,0.11363 0.168982,0.16898 0.05614,0.0574 0.112617,0.11363 0.168981,0.16898 0.05746,0.0588 0.115422,0.116 0.173117,0.1726 0.05497,0.0562 0.110175,0.11116 0.165365,0.16536 0.05615,0.0574 0.112614,0.11364 0.168981,0.16899 0.05614,0.0574 0.112615,0.11363 0.168981,0.16898 0.05615,0.0574 0.112615,0.11363 0.168982,0.16898 0.05614,0.0574 0.112617,0.11362 0.168981,0.16898 0.05578,0.057 0.111953,0.11295 0.16795,0.16795 0.05611,0.0574 0.112649,0.11364 0.168981,0.16898 0.05611,0.0574 0.112649,0.11365 0.168982,0.16899 0.05489,0.0561 0.11027,0.11119 0.165364,0.16536 0.05737,0.0587 0.115004,0.11654 0.172601,0.17312 0.05611,0.0574 0.112649,0.11365 0.168982,0.16898 0.05638,0.0577 0.113411,0.11391 0.170016,0.1695 0.05614,0.0574 0.112614,0.11363 0.168981,0.16898 0.05639,0.0577 0.112887,0.11442 0.169497,0.17001 0.05614,0.0574 0.112626,0.11364 0.168985,0.16898 0.05613,0.0574 0.112625,0.11365 0.168981,0.16899 0.05613,0.0574 0.112625,0.11364 0.168981,0.16898 0.05613,0.0574 0.112626,0.11365 0.168982,0.16898 0.05613,0.0574 0.112625,0.11364 0.168981,0.16898 0.05613,0.0574 0.112625,0.11364 0.168982,0.16898 0.05614,0.0574 0.112625,0.11365 0.168984,0.16899 0.05596,0.0572 0.112284,0.1133 0.168465,0.16846 0.05614,0.0574 0.112615,0.11363 0.168982,0.16899 0.05614,0.0574 0.112617,0.11363 0.168981,0.16898 0.05614,0.0574 0.11262,0.11363 0.168982,0.16898 0.05614,0.0574 0.112619,0.11363 0.168981,0.16898 0.05614,0.0574 0.11262,0.11364 0.168984,0.16898 0.05614,0.0574 0.112617,0.11363 0.168982,0.16899 0.05614,0.0574 0.112617,0.11363 0.168981,0.16898 0.05614,0.0574 0.112617,0.11363 0.168981,0.16898 0.05614,0.0574 0.11262,0.11363 0.168982,0.16898 0.05614,0.0574 0.112622,0.11363 0.168981,0.16898 0.05614,0.0574 0.11262,0.11364 0.168984,0.16898 0.05614,0.0574 0.112618,0.11364 0.168982,0.16899 0.05614,0.0574 0.112617,0.11363 0.168981,0.16898 0.05614,0.0574 0.11262,0.11363 0.168982,0.16898 0.05614,0.0574 0.11262,0.11363 0.168981,0.16898 0.05746,0.0588 0.115427,0.116 0.173117,0.1726 0.05497,0.0562 0.110175,0.11117 0.165365,0.16537 0.05615,0.0574 0.112614,0.11363 0.168981,0.16898 0.05614,0.0574 0.11262,0.11363 0.168981,0.16898 0.05615,0.0574 0.112618,0.11363 0.168985,0.16898 0.05615,0.0574 0.112614,0.11363 0.168981,0.16898 0.05578,0.0571 0.111953,0.11295 0.167947,0.16795 0.05611,0.0574 0.112649,0.11364 0.168984,0.16898 0.05488,0.0561 0.110268,0.1112 0.165365,0.16537 0.05736,0.0587 0.115001,0.11653 0.172598,0.17311 0.05611,0.0574 0.112649,0.11365 0.168981,0.16899 0.05611,0.0574 0.112649,0.11364 0.168982,0.16898 0.05638,0.0577 0.113416,0.11391 0.170016,0.1695 0.05614,0.0574 0.112617,0.11362 0.168981,0.16898 0.05639,0.0577 0.112887,0.11442 0.1695,0.17001 0.05613,0.0574 0.112625,0.11365 0.168982,0.16899 0.05613,0.0574 0.112625,0.11364 0.168981,0.16898 0.05613,0.0574 0.112625,0.11365 0.168981,0.16898 0.05614,0.0574 0.112626,0.11365 0.168984,0.16898 0.05613,0.0574 0.112626,0.11364 0.168982,0.16898 0.05613,0.0574 0.112625,0.11365 0.168981,0.16899 0.05613,0.0574 0.112626,0.11364 0.168982,0.16898 0.05596,0.0572 0.112286,0.11328 0.168465,0.16846 0.05614,0.0574 0.11262,0.11363 0.168982,0.16898 0.05614,0.0574 0.112622,0.11364 0.168981,0.16899 0.05614,0.0574 0.11262,0.11363 0.168984,0.16898 0.05614,0.0574 0.112615,0.11363 0.168982,0.16898 0.05614,0.0574 0.112617,0.11363 0.168981,0.16898 0.05614,0.0574 0.11262,0.11363 0.168982,0.16898 0.05614,0.0574 0.112619,0.11363 0.168981,0.16899 0.05614,0.0574 0.11262,0.11363 0.168984,0.16898 0.05614,0.0574 0.112617,0.11363 0.168981,0.16898 0.05614,0.0574 0.112618,0.11363 0.168982,0.16898 0.05614,0.0574 0.112617,0.11363 0.168981,0.16898 0.05614,0.0574 0.11262,0.11363 0.168982,0.16899 0.05614,0.0574 0.112622,0.11363 0.168981,0.16898 0.05614,0.0574 0.11262,0.11363 0.168984,0.16898 0.05614,0.0574 0.112618,0.11363 0.168982,0.16898 0.05746,0.0588 0.115422,0.116 0.173117,0.1726 0.05497,0.0562 0.110175,0.11117 0.165364,0.16537 0.05614,0.0574 0.112615,0.11363 0.168982,0.16898 0.05614,0.0574 0.112614,0.11363 0.168981,0.16898 0.05615,0.0574 0.112615,0.11363 0.168982,0.16898 0.05615,0.0574 0.112614,0.11362 0.168981,0.16898 0.05578,0.057 0.111953,0.11295 0.16795,0.16795 0.05611,0.0574 0.112649,0.11364 0.168981,0.16898 0.05488,0.0561 0.11027,0.1112 0.165365,0.16537 0.05736,0.0587 0.115003,0.11654 0.172598,0.17311 0.05611,0.0574 0.112649,0.11364 0.168984,0.16898 0.05611,0.0574 0.112649,0.11366 0.168981,0.16899 0.05638,0.0577 0.113414,0.11391 0.170016,0.1695 0.05639,0.0577 0.112887,0.11443 0.169498,0.17001 0.05613,0.0574 0.112625,0.11364 0.168981,0.16898 0.05613,0.0574 0.112628,0.11364 0.168982,0.16899 0.05614,0.0574 0.112625,0.11364 0.168984,0.16898 0.05613,0.0574 0.112625,0.11365 0.168981,0.16898 0.05613,0.0574 0.112625,0.11365 0.168981,0.16898 0.05613,0.0574 0.112626,0.11364 0.168982,0.16898 0.05613,0.0574 0.112625,0.11364 0.168981,0.16899 0.05596,0.0572 0.112287,0.11329 0.168466,0.16846 0.05614,0.0574 0.112622,0.11364 0.168981,0.16898 0.05614,0.0574 0.11262,0.11364 0.168984,0.16898 0.05614,0.0574 0.112618,0.11364 0.168982,0.16899 0.05614,0.0574 0.112617,0.11363 0.168981,0.16898 0.05614,0.0574 0.11262,0.11363 0.168982,0.16898 0.05614,0.0574 0.11262,0.11364 0.168981,0.16898 0.05614,0.0574 0.11262,0.11364 0.168984,0.16898 0.05614,0.0574 0.112615,0.11364 0.168982,0.16899 0.05614,0.0574 0.112617,0.11363 0.168981,0.16898 0.05614,0.0574 0.11262,0.11363 0.168981,0.16898 0.05614,0.0574 0.11262,0.11364 0.168982,0.16898 0.05614,0.0574 0.11262,0.11363 0.168984,0.16898 0.05614,0.0574 0.112617,0.11364 0.168981,0.16899 0.05614,0.0574 0.112618,0.11363 0.168982,0.16898 0.05614,0.0574 0.112617,0.11363 0.168981,0.16898 0.01323,0.0135 0.02652,0.0264 0.03979,0.0398 a 67.733338,67.733338 0 0 0 3.865398,0.19327 67.733338,67.733338 0 0 0 67.733329,-67.73333 67.733338,67.733338 0 0 0 -1.66915,-14.55984 h -0.005 c 1.5e-4,-2.2e-4 0.003,-0.006 0.004,-0.006 a 67.733338,67.733338 0 0 0 -0.0367,-0.16278 h -0.1359 c 0.004,-0.006 0.0977,-0.1695 0.0977,-0.1695 h -0.26665 c 0.003,-0.006 0.0977,-0.16898 0.0977,-0.16898 h -0.26665 c 0.003,-0.006 0.0977,-0.16898 0.0977,-0.16898 h -0.26717 c 0.003,-0.006 0.0977,-0.16898 0.0977,-0.16898 h -0.26665 c 0.003,-0.006 0.0982,-0.16899 0.0982,-0.16899 h -0.26665 c 0.003,-0.006 0.0977,-0.16898 0.0977,-0.16898 h -0.26665 c 0.003,-0.006 0.0977,-0.16898 0.0977,-0.16898 h -0.26665 c 0.003,-0.006 0.0977,-0.16898 0.0977,-0.16898 h -0.26665 c 0.003,-0.006 0.0977,-0.16898 0.0977,-0.16898 h -0.26665 c 0.003,-0.006 0.0977,-0.16898 0.0977,-0.16898 H 144.604 c 0.003,-0.006 0.0977,-0.16899 0.0977,-0.16899 h -0.26665 c 0.003,-0.006 0.0977,-0.16898 0.0977,-0.16898 h -0.26665 c 0.003,-0.006 0.0977,-0.16898 0.0977,-0.16898 h -0.26665 c 0.003,-0.006 0.0977,-0.16898 0.0977,-0.16898 h -0.26665 c 0.003,-0.006 0.0977,-0.16898 0.0977,-0.16898 h -0.26665 c 0.003,-0.006 0.0977,-0.16899 0.0977,-0.16899 h -0.26665 c 0.003,-0.006 0.0977,-0.16898 0.0977,-0.16898 h -0.26665 c 0.003,-0.006 0.0977,-0.16898 0.0977,-0.16898 h -0.26665 c 0.003,-0.006 0.0977,-0.16898 0.0977,-0.16898 h -0.26665 c 0.003,-0.006 0.0977,-0.16898 0.0977,-0.16898 h -0.26665 c 0.003,-0.006 0.0982,-0.16899 0.0982,-0.16899 h -0.26665 c 0.003,-0.006 0.0977,-0.16898 0.0977,-0.16898 h -0.26665 c 0.003,-0.006 0.0977,-0.16898 0.0977,-0.16898 h -0.26665 c 0.003,-0.006 0.0977,-0.16898 0.0977,-0.16898 h -0.26665 c 0.003,-0.006 0.0977,-0.16898 0.0977,-0.16898 h -0.27388 c 0.003,-0.006 0.0977,-0.16899 0.0977,-0.16899 h -0.26665 c 0.003,-0.006 0.0977,-0.16898 0.0977,-0.16898 h -0.26665 c 0.003,-0.006 0.0977,-0.16898 0.0977,-0.16898 h -0.26665 c 0.003,-0.006 0.0977,-0.16898 0.0977,-0.16898 h -0.26665 c 0.003,-0.006 0.0977,-0.16898 0.0977,-0.16898 h -0.26665 c 0.003,-0.006 0.0977,-0.16899 0.0977,-0.16899 h -0.26665 c 0.003,-0.006 0.0977,-0.16898 0.0977,-0.16898 h -0.26665 c 0.003,-0.006 0.0977,-0.16898 0.0977,-0.16898 h -0.26665 c 0.003,-0.006 0.0977,-0.16898 0.0977,-0.16898 h -0.26665 c 0.003,-0.006 0.0982,-0.16898 0.0982,-0.16898 h -0.26665 c 0.003,-0.006 0.0977,-0.16898 0.0977,-0.16898 h -0.26666 c 0.003,-0.006 0.0977,-0.16899 0.0977,-0.16899 h -0.26665 c 0.003,-0.006 0.0977,-0.16898 0.0977,-0.16898 h -0.26665 c 0.003,-0.006 0.0977,-0.1695 0.0977,-0.1695 h -0.26665 c 0.003,-0.005 0.0977,-0.16898 0.0977,-0.16898 h -0.26665 c 0.003,-0.005 0.0977,-0.16898 0.0977,-0.16898 H 139.358 c 0.003,-0.005 0.0977,-0.16898 0.0977,-0.16898 h -0.26665 c 0.003,-0.005 0.0977,-0.16899 0.0977,-0.16899 h -0.26664 c 0.003,-0.005 0.0977,-0.16898 0.0977,-0.16898 h -0.26665 c 0.003,-0.005 0.0977,-0.16898 0.0977,-0.16898 h -0.26665 c 0.003,-0.005 0.0977,-0.16898 0.0977,-0.16898 h -0.26665 c 0.003,-0.005 0.0977,-0.16898 0.0977,-0.16898 h -0.26665 c 0.003,-0.005 0.0977,-0.16898 0.0977,-0.16898 h -0.26664 c 0.003,-0.005 0.0977,-0.16899 0.0977,-0.16899 h -0.26665 c 0.003,-0.005 0.0977,-0.16898 0.0977,-0.16898 h -0.26665 c 0.003,-0.005 0.0982,-0.16898 0.0982,-0.16898 h -0.26665 c 0.003,-0.005 0.0977,-0.16898 0.0977,-0.16898 h -0.26666 c 0.003,-0.005 0.0977,-0.16898 0.0977,-0.16898 h -0.26665 c 0.003,-0.005 0.0977,-0.16899 0.0977,-0.16899 h -0.26665 c 0.003,-0.005 0.0977,-0.16898 0.0977,-0.16898 h -0.26665 c 0.003,-0.005 0.0977,-0.16898 0.0977,-0.16898 h -0.26665 c 0.003,-0.005 0.0977,-0.16898 0.0977,-0.16898 h -0.26666 c 0.003,-0.005 0.0977,-0.16898 0.0977,-0.16898 h -0.26665 c 0.003,-0.005 0.0977,-0.16899 0.0977,-0.16899 h -0.26665 c 0.003,-0.005 0.0977,-0.16898 0.0977,-0.16898 h -0.26665 c 0.003,-0.005 0.0977,-0.16898 0.0977,-0.16898 h -0.26665 c 0.003,-0.005 0.0977,-0.16898 0.0977,-0.16898 h -0.26665 c 0.003,-0.005 0.0977,-0.16898 0.0977,-0.16898 h -0.26665 c 0.003,-0.005 0.0977,-0.16899 0.0977,-0.16899 h -0.26665 c 0.003,-0.005 0.0977,-0.16898 0.0977,-0.16898 h -0.26665 c 0.003,-0.005 0.0977,-0.16898 0.0977,-0.16898 h -0.26665 c 0.003,-0.005 0.0977,-0.16898 0.0977,-0.16898 h -0.26665 c 0.003,-0.005 0.0982,-0.16898 0.0982,-0.16898 h -0.26665 c 0.003,-0.005 0.0977,-0.16899 0.0977,-0.16899 h -0.26665 c 0.003,-0.005 0.0977,-0.16898 0.0977,-0.16898 h -0.26666 c 0.003,-0.005 0.0977,-0.16898 0.0977,-0.16898 h -0.26665 c 0.003,-0.005 0.0977,-0.16898 0.0977,-0.16898 h -0.26665 c 0.003,-0.005 0.0977,-0.16898 0.0977,-0.16898 h -0.26665 c 0.003,-0.005 0.0977,-0.16899 0.0977,-0.16899 h -0.26665 c 0.003,-0.005 0.0977,-0.16898 0.0977,-0.16898 h -0.26665 c 0.003,-0.005 0.0977,-0.16898 0.0977,-0.16898 h -0.26665 c 0.003,-0.005 0.0977,-0.16898 0.0977,-0.16898 h -0.26665 c 0.003,-0.005 0.0977,-0.1695 0.0977,-0.1695 h -0.26665 l 0.0977,-0.16898 h -0.26717 c 0.003,-0.005 0.0977,-0.16898 0.0977,-0.16898 h -0.26665 c 0.003,-0.005 0.0977,-0.16899 0.0977,-0.16899 h -0.26665 c 0.003,-0.005 0.0977,-0.16898 0.0977,-0.16898 h -0.2682 c 0.003,-0.005 0.0977,-0.16898 0.0977,-0.16898 h -0.26665 c 0.003,-0.005 0.0977,-0.16898 0.0977,-0.16898 h -0.26665 c 0.003,-0.005 0.0977,-0.16898 0.0977,-0.16898 h -0.26665 c 0.003,-0.005 0.0977,-0.16898 0.0977,-0.16898 h -0.26665 c 0.003,-0.005 0.0977,-0.16899 0.0977,-0.16899 h -0.26665 c 0.003,-0.005 0.0977,-0.16898 0.0977,-0.16898 h -0.26665 c 0.003,-0.005 0.0977,-0.16898 0.0977,-0.16898 h -0.26665 c 0.003,-0.005 0.0977,-0.16898 0.0977,-0.16898 h -0.26665 c 0.003,-0.005 0.0977,-0.16898 0.0977,-0.16898 h -0.26665 c 0.003,-0.005 0.0982,-0.16899 0.0982,-0.16899 h -0.26665 c 0.003,-0.005 0.0977,-0.16898 0.0977,-0.16898 h -0.26665 c 0.003,-0.005 0.0977,-0.16898 0.0977,-0.16898 h -0.26665 c 0.003,-0.005 0.0977,-0.16898 0.0977,-0.16898 h -0.26665 c 0.003,-0.005 0.0977,-0.16898 0.0977,-0.16898 h -0.26665 c 0.003,-0.005 0.0977,-0.16899 0.0977,-0.16899 h -0.26665 c 0.003,-0.005 0.0977,-0.16898 0.0977,-0.16898 h -0.26665 c 0.003,-0.005 0.0977,-0.16898 0.0977,-0.16898 h -0.26665 c 0.003,-0.005 0.0977,-0.16898 0.0977,-0.16898 h -0.26665 c 0.003,-0.005 0.0977,-0.16898 0.0977,-0.16898 h -0.26665 c 0.003,-0.005 0.0977,-0.16899 0.0977,-0.16899 h -0.26666 c 0.003,-0.005 0.0977,-0.16898 0.0977,-0.16898 h -0.26665 c 0.003,-0.005 0.0977,-0.16898 0.0977,-0.16898 h -0.26665 c 0.003,-0.005 0.0977,-0.16898 0.0977,-0.16898 h -0.26665 c 0.003,-0.005 0.0977,-0.16898 0.0977,-0.16898 h -0.26665 c 0.003,-0.005 0.0977,-0.16899 0.0977,-0.16899 h -0.26666 c 0.003,-0.005 0.0982,-0.16898 0.0982,-0.16898 h -0.26665 c 0.003,-0.005 0.0977,-0.16898 0.0977,-0.16898 h -0.26665 c 0.003,-0.005 0.0977,-0.16898 0.0977,-0.16898 h -0.26666 c 0.003,-0.005 0.0977,-0.16898 0.0977,-0.16898 h -0.26665 c 0.003,-0.005 0.0977,-0.16899 0.0977,-0.16899 h -0.26665 c 0.003,-0.005 0.0977,-0.16898 0.0977,-0.16898 h -0.26665 c 0.003,-0.005 0.0977,-0.16898 0.0977,-0.16898 h -0.26665 c 0.003,-0.005 0.0977,-0.16898 0.0977,-0.16898 h -0.26666 c 0.003,-0.005 0.0977,-0.1695 0.0977,-0.1695 h -0.26665 c 0.003,-0.005 0.0977,-0.16898 0.0977,-0.16898 h -0.26665 c 0.003,-0.005 0.0977,-0.16898 0.0977,-0.16898 h -0.26717 c 0.003,-0.005 0.0977,-0.16899 0.0977,-0.16899 h -0.26665 c 0.003,-0.005 0.0977,-0.16898 0.0977,-0.16898 h -0.26665 c 0.003,-0.005 0.0977,-0.16898 0.0977,-0.16898 h -0.26665 c 0.003,-0.005 0.0977,-0.16898 0.0977,-0.16898 h -0.26665 c 0.003,-0.005 0.0977,-0.16898 0.0977,-0.16898 h -0.26665 c 0.003,-0.005 0.0982,-0.16899 0.0982,-0.16899 h -0.26665 c 0.003,-0.005 0.0977,-0.16898 0.0977,-0.16898 h -0.26665 c 0.003,-0.005 0.0977,-0.16898 0.0977,-0.16898 h -0.26665 c 0.003,-0.005 0.0977,-0.16898 0.0977,-0.16898 h -0.26665 c 0.003,-0.005 0.0977,-0.16898 0.0977,-0.16898 h -0.26252 -0.004 c 0.003,-0.005 0.0977,-0.16898 0.0977,-0.16898 h -0.23358 -0.0331 c 0.003,-0.005 0.0977,-0.16899 0.0977,-0.16899 h -0.20413 -0.0625 c 0.003,-0.004 0.0977,-0.16898 0.0977,-0.16898 h -0.17519 -0.0915 c 0.003,-0.004 0.0977,-0.16898 0.0977,-0.16898 h -0.14624 -0.12041 c 0.003,-0.004 0.0977,-0.16898 0.0977,-0.16898 h -0.11679 -0.14986 c 0.003,-0.004 0.0977,-0.16898 0.0977,-0.16898 h -0.0879 -0.1788 c 0.003,-0.004 0.0977,-0.16899 0.0977,-0.16899 h -0.0589 -0.20774 c 0.003,-0.004 0.0977,-0.16898 0.0977,-0.16898 h -0.03 -0.23668 c 0.003,-0.004 0.0977,-0.16898 0.0977,-0.16898 h -5.1e-4 -14.58051 l -5.1e-4,5.2e-4 c -0.0565,0.0979 -7.29,12.62662 -7.29,12.62662 l -5.2e-4,5.1e-4 c -0.0426,0.0738 -3.467424,5.99743 -5.495267,9.5095 h -0.05013 c -0.0026,-0.004 -0.09767,-0.16898 -0.09767,-0.16898 h -5.16e-4 -0.0708 c -0.0026,-0.004 -0.09767,-0.16898 -0.09767,-0.16898 h -5.16e-4 -0.0708 c -0.0026,-0.004 -0.09767,-0.16899 -0.09767,-0.16899 h -5.16e-4 -0.0708 c -0.0026,-0.004 -0.09767,-0.16898 -0.09767,-0.16898 h -5.18e-4 -0.07079 c -0.0026,-0.004 -0.09767,-0.16898 -0.09767,-0.16898 h -5.19e-4 -0.07079 c -0.0026,-0.004 -0.09767,-0.16898 -0.09767,-0.16898 h -5.16e-4 -0.0708 c -0.0026,-0.004 -0.09767,-0.16898 -0.09767,-0.16898 h -5.16e-4 -0.0708 c -0.0026,-0.004 -0.09767,-0.16899 -0.09767,-0.16899 H 94.7068 94.636 c -0.0026,-0.004 -0.09767,-0.16898 -0.09767,-0.16898 h -5.16e-4 -0.0708 c -0.0026,-0.004 -0.09767,-0.16898 -0.09767,-0.16898 h -5.19e-4 -0.07079 c -0.0026,-0.004 -0.09767,-0.16898 -0.09767,-0.16898 h -5.18e-4 -0.0708 c -0.0026,-0.004 -0.09767,-0.16898 -0.09767,-0.16898 h -5.16e-4 -0.0708 c -0.0026,-0.004 -0.09767,-0.16899 -0.09767,-0.16899 h -5.16e-4 -0.0708 c -0.0026,-0.004 -0.09767,-0.16898 -0.09767,-0.16898 h -5.15e-4 -0.0708 c -0.0026,-0.004 -0.09767,-0.16898 -0.09767,-0.16898 h -5.19e-4 -0.07079 c -0.0026,-0.004 -0.09767,-0.16898 -0.09767,-0.16898 h -5.19e-4 -0.0708 c -0.0026,-0.004 -0.09767,-0.16898 -0.09767,-0.16898 h -5.16e-4 -0.0708 c -0.0026,-0.004 -0.09767,-0.16899 -0.09767,-0.16899 h -5.16e-4 -0.0708 c -0.0026,-0.004 -0.09767,-0.16898 -0.09767,-0.16898 h -5.16e-4 -0.0708 c -0.0026,-0.004 -0.09767,-0.16898 -0.09767,-0.16898 h -5.16e-4 -0.0708 c -0.0026,-0.004 -0.09767,-0.16898 -0.09767,-0.16898 h -5.19e-4 -0.0708 c -0.0026,-0.004 -0.09767,-0.16898 -0.09767,-0.16898 h -5.16e-4 -0.0708 c -0.0026,-0.004 -0.09767,-0.16898 -0.09767,-0.16898 h -5.16e-4 -0.0708 c -0.0026,-0.004 -0.09767,-0.16899 -0.09767,-0.16899 h -5.16e-4 -0.0708 c -0.0026,-0.004 -0.09767,-0.16898 -0.09767,-0.16898 h -5.16e-4 -0.0708 c -0.0026,-0.004 -0.09767,-0.16898 -0.09767,-0.16898 h -5.19e-4 -0.07079 c -0.0026,-0.004 -0.09767,-0.16898 -0.09767,-0.16898 h -5.16e-4 -0.0708 c -0.0026,-0.004 -0.09767,-0.16898 -0.09767,-0.16898 h -5.16e-4 -0.0708 c -0.0026,-0.004 -0.09767,-0.16899 -0.09767,-0.16899 h -5.16e-4 -0.0708 c -0.0026,-0.004 -0.09767,-0.16898 -0.09767,-0.16898 h -5.16e-4 -0.0708 c -0.0026,-0.004 -0.09767,-0.16898 -0.09767,-0.16898 h -5.18e-4 -0.07079 c -0.0026,-0.004 -0.09767,-0.16898 -0.09767,-0.16898 h -5.19e-4 -0.0708 c -0.0026,-0.004 -0.09767,-0.16898 -0.09767,-0.16898 h -5.16e-4 -0.0708 c -0.0026,-0.004 -0.09767,-0.16899 -0.09767,-0.16899 h -0.001 -0.07028 c -0.0026,-0.004 -0.09767,-0.16898 -0.09767,-0.16898 h -0.001 -0.07079 c -0.0026,-0.004 -0.09767,-0.1695 -0.09767,-0.1695 h -5.16e-4 -0.0708 c -0.0026,-0.004 -0.09767,-0.16898 -0.09767,-0.16898 h -5.16e-4 -0.0708 c -0.0026,-0.004 -0.09767,-0.16898 -0.09767,-0.16898 h -5.16e-4 -0.0708 c -0.0026,-0.004 -0.09767,-0.16898 -0.09767,-0.16898 h -5.16e-4 -0.0708 c -0.0026,-0.004 -0.09767,-0.16898 -0.09767,-0.16898 h -5.19e-4 -0.07079 c -0.0026,-0.004 -0.09767,-0.16899 -0.09767,-0.16899 h -5.19e-4 -0.0708 c -0.0026,-0.004 -0.09767,-0.16898 -0.09767,-0.16898 h -5.15e-4 -0.0708 c -0.0026,-0.004 -0.09767,-0.16898 -0.09767,-0.16898 h -5.16e-4 -0.0708 c -0.0026,-0.004 -0.09767,-0.16898 -0.09767,-0.16898 h -5.16e-4 -0.0708 c -0.0026,-0.004 -0.09767,-0.16898 -0.09767,-0.16898 h -5.18e-4 -0.07079 c -0.0026,-0.004 -0.09767,-0.16899 -0.09767,-0.16899 h -5.19e-4 -0.07079 c -0.0026,-0.004 -0.09767,-0.16898 -0.09767,-0.16898 h -5.16e-4 -0.0708 c -0.0026,-0.004 -0.09767,-0.16898 -0.09767,-0.16898 h -5.16e-4 -0.0708 c -0.0026,-0.004 -0.09767,-0.16898 -0.09767,-0.16898 h -5.16e-4 -0.0708 c -0.0026,-0.004 -0.09767,-0.16898 -0.09767,-0.16898 h -5.16e-4 -0.0708 c -0.0026,-0.004 -0.09767,-0.16899 -0.09767,-0.16899 H 87.44 87.36921 c -0.0026,-0.004 -0.09767,-0.16898 -0.09767,-0.16898 h -5.18e-4 -0.0708 c -0.0026,-0.004 -0.09767,-0.16898 -0.09767,-0.16898 h -5.16e-4 -0.0708 c -0.0026,-0.004 -0.09767,-0.16898 -0.09767,-0.16898 h -5.16e-4 -0.0708 c -0.0026,-0.004 -0.09767,-0.16898 -0.09767,-0.16898 h -5.15e-4 -0.0708 c -0.0026,-0.004 -0.09767,-0.16899 -0.09767,-0.16899 h -5.19e-4 -0.07079 c -0.0026,-0.004 -0.09767,-0.16898 -0.09767,-0.16898 h -5.19e-4 -0.0708 c -0.0026,-0.004 -0.09767,-0.16898 -0.09767,-0.16898 h -5.16e-4 -0.0708 c -0.0026,-0.004 -0.09767,-0.16898 -0.09767,-0.16898 h -5.16e-4 -0.0708 c -0.0026,-0.004 -0.09767,-0.16898 -0.09767,-0.16898 h -5.16e-4 -0.0708 c -0.0026,-0.004 -0.09767,-0.16899 -0.09767,-0.16899 h -5.16e-4 -0.0708 c -0.0026,-0.004 -0.09767,-0.16898 -0.09767,-0.16898 h -5.19e-4 -0.0708 c -0.0026,-0.004 -0.09767,-0.16898 -0.09767,-0.16898 h -5.16e-4 -0.0708 c -0.0026,-0.004 -0.09767,-0.16898 -0.09767,-0.16898 h -5.16e-4 -0.0708 c -0.0026,-0.004 -0.09767,-0.16898 -0.09767,-0.16898 h -5.16e-4 -0.0708 c -0.0026,-0.004 -0.09767,-0.16898 -0.09767,-0.16898 h -5.16e-4 -0.0708 c -0.0026,-0.004 -0.09767,-0.16899 -0.09767,-0.16899 h -5.19e-4 -0.07079 c -0.0026,-0.004 -0.09767,-0.16898 -0.09767,-0.16898 h -5.16e-4 -0.0708 c -0.0026,-0.004 -0.09767,-0.16898 -0.09767,-0.16898 h -0.001 -0.07028 c -0.0026,-0.004 -0.09767,-0.16898 -0.09767,-0.16898 h -10e-4 -0.07028 c -0.0026,-0.004 -0.09767,-0.16898 -0.09767,-0.16898 h -0.001 -0.07028 c -0.0026,-0.004 -0.09767,-0.16899 -0.09767,-0.16899 h -0.001 -0.07028 c -0.0026,-0.004 -0.09767,-0.16898 -0.09767,-0.16898 h -10e-4 -0.0708 c -0.0026,-0.004 -0.09767,-0.1695 -0.09767,-0.1695 h -5.16e-4 -0.0708 c -0.0026,-0.004 -0.09767,-0.16898 -0.09767,-0.16898 h -5.16e-4 -0.0708 c -0.0026,-0.004 -0.09767,-0.16898 -0.09767,-0.16898 h -5.19e-4 -0.07079 c -0.0026,-0.004 -0.09767,-0.16898 -0.09767,-0.16898 h -5.16e-4 -0.0708 c -0.0026,-0.004 -0.09767,-0.16898 -0.09767,-0.16898 h -5.16e-4 -0.0708 c -0.0026,-0.004 -0.09767,-0.16899 -0.09767,-0.16899 h -5.16e-4 -0.0708 c -0.0026,-0.004 -0.09767,-0.16898 -0.09767,-0.16898 h -5.15e-4 -0.0708 c -0.0026,-0.004 -0.09767,-0.16898 -0.09767,-0.16898 h -5.19e-4 -0.07079 c -0.0026,-0.004 -0.09767,-0.16898 -0.09767,-0.16898 h -5.19e-4 -0.0708 c -0.0026,-0.004 -0.09767,-0.16898 -0.09767,-0.16898 h -5.15e-4 -0.0708 c -0.0026,-0.004 -0.09767,-0.16899 -0.09767,-0.16899 h -5.16e-4 -0.0708 c -0.0026,-0.004 -0.09767,-0.16898 -0.09767,-0.16898 h -5.16e-4 -0.0708 c -0.0026,-0.004 -0.09767,-0.16898 -0.09767,-0.16898 h -5.18e-4 -0.07079 c -0.0026,-0.004 -0.09767,-0.16898 -0.09767,-0.16898 h -5.19e-4 -0.07079 c -0.0026,-0.004 -0.09767,-0.16898 -0.09767,-0.16898 h -5.16e-4 -0.0708 c -0.0026,-0.004 -0.09767,-0.16899 -0.09767,-0.16899 h -5.16e-4 -0.0708 c -0.0026,-0.004 -0.09767,-0.16898 -0.09767,-0.16898 h -5.16e-4 -0.0708 c -0.0026,-0.004 -0.09767,-0.16898 -0.09767,-0.16898 h -5.16e-4 -0.0708 c -0.0026,-0.004 -0.09767,-0.16898 -0.09767,-0.16898 h -5.19e-4 -0.07079 c -0.0026,-0.004 -0.09767,-0.16898 -0.09767,-0.16898 h -5.18e-4 -0.0708 c -0.0026,-0.004 -0.09767,-0.16899 -0.09767,-0.16899 h -5.16e-4 -0.0708 c -0.0026,-0.004 -0.09767,-0.16898 -0.09767,-0.16898 h -5.16e-4 -0.0708 c -0.0026,-0.004 -0.09767,-0.16898 -0.09767,-0.16898 h -5.16e-4 -0.0708 c -0.0026,-0.004 -0.09767,-0.16898 -0.09767,-0.16898 h -5.18e-4 -0.07079 c -0.0026,-0.004 -0.09767,-0.16898 -0.09767,-0.16898 h -5.19e-4 -0.0708 c -0.0026,-0.004 -0.09767,-0.16899 -0.09767,-0.16899 h -5.16e-4 -0.0708 c -0.0026,-0.004 -0.09767,-0.16898 -0.09767,-0.16898 h -5.16e-4 -0.0708 c -0.0026,-0.004 -0.09767,-0.16898 -0.09767,-0.16898 h -5.16e-4 -0.0708 c -0.0026,-0.004 -0.09767,-0.16898 -0.09767,-0.16898 h -5.16e-4 -0.0708 c -0.0026,-0.004 -0.09767,-0.16898 -0.09767,-0.16898 h -5.19e-4 -0.0708 c -0.0026,-0.004 -0.09767,-0.16898 -0.09767,-0.16898 h -0.001 -0.07028 c -0.0026,-0.004 -0.09767,-0.16899 -0.09767,-0.16899 h -0.001 -0.07028 c -0.0026,-0.004 -0.09767,-0.16898 -0.09767,-0.16898 h -10e-4 -0.07028 c -0.0026,-0.004 -0.09767,-0.16898 -0.09767,-0.16898 h -0.001 -0.07028 c -0.0026,-0.004 -0.09767,-0.16898 -0.09767,-0.16898 h -5.19e-4 -0.07028 c -0.0026,-0.004 -0.09767,-0.16898 -0.09767,-0.16898 h -0.001 -0.07028 c -0.0026,-0.004 -0.09767,-0.16899 -0.09767,-0.16899 h -0.001 -0.07028 c -0.0026,-0.004 -0.09767,-0.16898 -0.09767,-0.16898 h -10e-4 -0.0708 c -0.0026,-0.004 -0.09767,-0.1695 -0.09767,-0.1695 h -5.16e-4 -0.0708 c -0.0026,-0.004 -0.09767,-0.16898 -0.09767,-0.16898 h -5.18e-4 -0.07079 c -0.0026,-0.004 -0.09767,-0.16898 -0.09767,-0.16898 h -5.19e-4 -0.0708 c -0.0026,-0.004 -0.09767,-0.16898 -0.09767,-0.16898 h -5.16e-4 -0.0708 c -0.0026,-0.004 -0.09767,-0.16898 -0.09767,-0.16898 h -5.16e-4 -0.0708 c -0.0026,-0.004 -0.09767,-0.16899 -0.09767,-0.16899 h -5.16e-4 -0.0708 c -0.0026,-0.004 -0.09767,-0.16898 -0.09767,-0.16898 h -5.18e-4 -0.0708 c -0.0026,-0.004 -0.09767,-0.16898 -0.09767,-0.16898 h -5.19e-4 -0.07079 c -0.0026,-0.004 -0.09767,-0.16898 -0.09767,-0.16898 h -5.16e-4 -0.0708 c -0.0026,-0.004 -0.09767,-0.16898 -0.09767,-0.16898 h -5.16e-4 -0.0708 c -0.0026,-0.004 -0.09767,-0.16899 -0.09767,-0.16899 h -5.16e-4 -0.0708 c -0.0026,-0.004 -0.09767,-0.16898 -0.09767,-0.16898 h -5.16e-4 -0.0708 c -0.0026,-0.004 -0.09767,-0.16898 -0.09767,-0.16898 h -5.18e-4 -0.07079 c -0.0026,-0.004 -0.09767,-0.16898 -0.09767,-0.16898 h -5.19e-4 -0.0708 c -0.0026,-0.004 -0.09767,-0.16898 -0.09767,-0.16898 h -5.16e-4 -0.0708 c -0.0026,-0.004 -0.09767,-0.16899 -0.09767,-0.16899 h -5.16e-4 -0.0708 c -0.0026,-0.004 -0.09767,-0.16898 -0.09767,-0.16898 h -5.16e-4 -0.0708 c -0.0026,-0.004 -0.09767,-0.16898 -0.09767,-0.16898 h -5.18e-4 -0.0708 c -0.0026,-0.004 -0.09767,-0.16898 -0.09767,-0.16898 h -5.19e-4 -0.0708 c -0.0026,-0.004 -0.09767,-0.16898 -0.09767,-0.16898 h -5.16e-4 z"
       id="path5013"
       inkscape:connector-curvature="0" />
    <path
       inkscape:connector-curvature="0"
       id="path827-0"
       d="m 37.463871,341.44677 -7.29048,12.62731 7.29048,12.62736 c 7.360079,12.62746 7.360079,12.62746 21.871421,12.62731 l -7.290461,-12.62731 -7.29048,-12.62736 z"
       style="opacity:1;fill:#00aad4;fill-opacity:1;stroke:none;stroke-width:2.10457969;stroke-linecap:round;stroke-linejoin:bevel;stroke-miterlimit:4;stroke-dasharray:none;stroke-opacity:1;paint-order:normal"
       inkscape:export-xdpi="163.84"
       inkscape:export-ydpi="163.84"
       sodipodi:nodetypes="ccccccc" />
    <path
       inkscape:connector-curvature="0"
       id="path831-4"
       d="m 37.463871,316.19124 -7.29048,12.62817 c -7.290871,12.62741 -7.290871,12.62827 0,25.25467 l 7.29048,-12.62731 7.29048,-12.62736 7.29048,-12.62817 z"
       style="opacity:1;fill:#2c89a0;fill-opacity:1;stroke:none;stroke-width:2.10457969;stroke-linecap:round;stroke-linejoin:bevel;stroke-miterlimit:4;stroke-dasharray:none;stroke-opacity:1;paint-order:normal"
       inkscape:export-xdpi="163.84"
       inkscape:export-ydpi="163.84"
       sodipodi:nodetypes="ccccccc" />
    <path
       inkscape:connector-curvature="0"
       id="path845-9"
       d="m 37.463871,316.19124 h 14.58096 14.58094 14.58096 l -7.29048,-12.62731 H 59.335292 c -14.581341,5e-5 -14.581341,5e-5 -21.871421,12.62731 z"
       style="opacity:1;fill:#216778;fill-opacity:1;stroke:none;stroke-width:2.10457969;stroke-linecap:round;stroke-linejoin:bevel;stroke-miterlimit:4;stroke-dasharray:none;stroke-opacity:1;paint-order:normal"
       inkscape:export-xdpi="163.84"
       inkscape:export-ydpi="163.84"
       sodipodi:nodetypes="ccccccc" />
    <path
       inkscape:connector-curvature="0"
       id="path871-3"
       d="m 52.044831,341.44677 7.290461,12.62731 h 14.580959 l 7.29048,-12.62731 h -14.58096 z"
       style="opacity:1;fill:#55ddff;fill-opacity:1;stroke:none;stroke-width:2.10457969;stroke-linecap:round;stroke-linejoin:bevel;stroke-miterlimit:4;stroke-dasharray:none;stroke-opacity:1;paint-order:normal"
       inkscape:export-xdpi="163.84"
       inkscape:export-ydpi="163.84" />
    <path
       inkscape:export-ydpi="163.84"
       inkscape:export-xdpi="163.84"
       style="opacity:1;fill:#00ccff;fill-opacity:1;stroke:none;stroke-width:2.10457969;stroke-linecap:round;stroke-linejoin:bevel;stroke-miterlimit:4;stroke-dasharray:none;stroke-opacity:1;paint-order:normal"
       d="m 52.044831,366.70144 7.290461,12.62731 c 14.580959,0 14.580959,0 21.871439,-12.62731 h -14.58096 z"
       id="path4502"
       inkscape:connector-curvature="0"
       sodipodi:nodetypes="ccccc" />
    <path
       inkscape:export-ydpi="163.84"
       inkscape:export-xdpi="163.84"
       style="opacity:1;fill:#2ad4ff;fill-opacity:1;stroke:none;stroke-width:2.10457969;stroke-linecap:round;stroke-linejoin:bevel;stroke-miterlimit:4;stroke-dasharray:none;stroke-opacity:1;paint-order:normal"
       d="m 81.206607,341.44672 -7.29048,12.62732 -7.29048,12.62735 h 14.58096 c 7.290461,-12.62735 7.290461,-12.62735 0,-25.25467 z"
       id="path4504"
       inkscape:connector-curvature="0"
       sodipodi:nodetypes="ccccc" />
    <g
       id="g7091">
      <path
         style="fill:#ff0000;fill-opacity:1;stroke:none;stroke-width:0.63137347px;stroke-linecap:butt;stroke-linejoin:miter;stroke-opacity:1"
         d="m 108.81978,303.56504 -7.29051,12.62714 -7.290517,12.62713 7.290517,12.62766 7.29051,-12.62766 7.29051,-12.62713 7.29051,-12.62714 z"
         id="path4742"
         inkscape:connector-curvature="0" />
      <path
         style="fill:#aa0000;fill-opacity:1;stroke:none;stroke-width:0.63137347px;stroke-linecap:butt;stroke-linejoin:miter;stroke-opacity:1"
         d="m 94.238753,328.8188 c -7.290868,12.62641 -7.290868,12.62687 0,25.25427 l 7.290517,12.62817 7.29051,12.62765 h 14.58102 l -7.29051,-12.62765 -7.29051,-12.62817 -7.29051,-12.62714 z"
         id="path4756"
         inkscape:connector-curvature="0" />
    </g>
  </g>
</svg>
