<?xml version="1.0" standalone="no"?>
<!DOCTYPE svg PUBLIC "-//W3C//DTD SVG 20010904//EN"
 "http://www.w3.org/TR/2001/REC-SVG-20010904/DTD/svg10.dtd">
<svg version="1.0" xmlns="http://www.w3.org/2000/svg"
 width="700.000000pt" height="700.000000pt" viewBox="0 0 700.000000 700.000000"
 preserveAspectRatio="xMidYMid meet">
<metadata>
Created by potrace 1.11, written by Peter Selinger 2001-2013
</metadata>
<g transform="translate(0.000000,700.000000) scale(0.100000,-0.100000)"
fill="#000000" stroke="none">
<path d="M3135 6938 c154 -93 227 -184 265 -334 18 -69 18 -79 5 -87 -8 -4
-15 -15 -15 -22 0 -22 -84 -19 -161 5 -89 27 -165 90 -231 190 l-53 80 -3
-175 c-1 -96 -1 -254 0 -351 l3 -175 61 88 c96 139 188 201 327 217 46 6 57 5
57 -7 0 -8 7 -20 15 -27 12 -10 15 -37 15 -122 l0 -110 -56 -110 c-121 -236
-223 -362 -341 -420 -65 -32 -73 -33 -178 -32 -60 0 -130 6 -155 13 -25 6 -78
21 -117 33 l-73 21 0 42 c0 74 -30 145 -83 200 l-49 50 4 101 c7 150 49 223
140 243 51 12 133 -4 203 -38 33 -16 61 -28 63 -26 5 4 -65 140 -95 187 -47
71 -126 97 -191 64 -34 -17 -129 -117 -167 -174 l-29 -44 -26 104 c-42 167
-145 380 -217 450 -32 31 -35 32 -48 15 -17 -24 -35 -149 -35 -250 0 -126 24
-290 55 -368 4 -10 -28 1 -92 34 -166 82 -262 76 -304 -19 -23 -51 -38 -230
-22 -258 9 -16 12 -14 32 17 28 46 104 115 146 133 19 8 54 14 78 14 77 0 153
-73 213 -205 25 -53 25 -55 7 -87 -27 -50 -24 -168 6 -234 l22 -52 -24 -48
c-37 -71 -87 -126 -148 -159 -100 -54 -254 -46 -408 22 -122 54 -301 187 -383
287 l-49 58 23 25 c86 93 216 92 428 -2 57 -25 104 -44 106 -42 4 4 -340 627
-346 627 -3 0 -13 -40 -23 -88 -22 -118 -69 -246 -113 -305 -32 -45 -114 -107
-139 -107 -17 0 -75 102 -96 170 -21 68 -25 177 -9 250 14 61 56 161 101 240
21 35 37 66 35 67 -5 5 -466 -261 -466 -268 0 -4 186 -326 413 -716 379 -649
411 -708 390 -711 -22 -3 -23 -7 -23 -93 l0 -90 -102 3 -102 3 -8 38 c-30 144
-171 267 -323 283 -119 13 -259 -47 -326 -139 -59 -79 -73 -123 -73 -227 -1
-83 3 -102 26 -152 46 -98 154 -188 252 -207 l31 -7 3 -131 3 -130 -94 -5
c-66 -4 -101 -10 -121 -23 -54 -36 -56 -48 -56 -377 0 -286 1 -305 20 -336 28
-45 73 -62 170 -62 l80 0 0 -145 0 -145 -77 -1 c-99 0 -141 -15 -170 -58 -23
-34 -23 -38 -23 -338 0 -331 2 -342 57 -379 21 -13 52 -19 121 -22 l92 -4 0
-138 0 -138 -88 -4 c-56 -3 -99 -11 -120 -22 -59 -31 -62 -51 -62 -383 0 -281
1 -300 20 -331 28 -45 73 -62 170 -62 l80 0 0 -125 c0 -103 -3 -125 -15 -125
-42 0 -130 -46 -184 -96 -85 -78 -116 -151 -116 -269 0 -82 3 -97 33 -157 37
-75 104 -142 179 -179 41 -20 63 -24 148 -24 93 0 105 2 167 33 235 115 276
424 81 602 -51 47 -139 90 -183 90 -19 0 -20 7 -20 125 l0 125 80 0 c97 0 142
17 170 62 19 31 20 50 20 336 0 329 -2 341 -56 377 -20 13 -55 19 -121 23
l-93 5 0 138 0 139 78 1 c98 0 140 15 169 58 23 34 23 38 23 340 0 289 -1 308
-20 339 -28 45 -73 62 -170 62 l-80 0 0 145 0 145 80 0 c97 0 142 17 170 62
19 31 20 50 20 339 0 302 0 306 -23 340 -29 43 -71 58 -169 58 l-78 1 0 129 0
130 58 16 c140 41 228 139 268 303 2 8 32 12 104 12 l100 0 2 -2217 3 -2218
117 -3 116 -3 22 58 c179 474 313 862 308 895 -3 20 -10 23 -50 26 l-48 3 0
235 0 234 230 0 230 0 0 -245 0 -245 -56 0 c-41 0 -55 -3 -51 -12 3 -7 80
-206 172 -443 91 -237 170 -434 174 -438 6 -6 351 863 351 886 0 4 -22 7 -50
7 l-50 0 0 245 0 245 230 0 230 0 0 -245 0 -245 -56 0 c-41 0 -55 -3 -51 -12
2 -7 79 -205 171 -441 91 -235 166 -432 166 -437 0 -6 5 -10 10 -10 6 0 10 4
10 10 0 5 75 202 166 437 92 236 169 434 171 441 4 9 -10 12 -51 12 l-56 0 0
245 0 245 230 0 230 0 0 -245 0 -245 -50 0 c-27 0 -50 -3 -50 -7 0 -23 345
-892 351 -886 4 4 83 201 174 438 92 237 169 436 172 443 4 9 -10 12 -51 12
l-56 0 0 245 0 245 230 0 230 0 0 -234 0 -235 -47 -3 c-41 -3 -48 -6 -51 -26
-5 -33 129 -421 308 -895 l22 -58 116 3 117 3 3 2218 2 2217 100 0 c72 0 102
-4 104 -12 47 -181 139 -277 299 -312 l27 -6 0 -130 0 -130 -77 -1 c-99 0
-141 -15 -170 -58 -23 -34 -23 -38 -23 -340 0 -289 1 -308 20 -339 28 -45 73
-62 170 -62 l80 0 0 -145 0 -145 -80 0 c-97 0 -142 -17 -170 -62 -19 -31 -20
-50 -20 -339 0 -302 0 -306 23 -340 29 -43 71 -58 170 -58 l77 -1 0 -139 0
-138 -93 -5 c-66 -4 -101 -10 -121 -23 -54 -36 -56 -48 -56 -377 0 -286 1
-305 20 -336 28 -45 73 -62 170 -62 l80 0 0 -125 c0 -118 -1 -125 -20 -125
-44 0 -132 -43 -185 -91 -206 -189 -141 -520 122 -619 48 -18 73 -21 143 -18
73 3 94 9 148 37 75 41 135 103 170 179 23 49 27 70 27 147 0 118 -31 191
-116 269 -54 50 -142 96 -184 96 -12 0 -15 22 -15 125 l0 125 80 0 c97 0 142
17 170 62 19 31 20 50 20 331 0 332 -3 352 -62 383 -21 11 -64 19 -120 22
l-88 4 0 138 0 138 93 4 c68 3 99 9 120 22 55 37 57 48 57 379 0 300 0 304
-23 338 -29 43 -71 58 -169 58 l-78 1 0 145 0 145 80 0 c97 0 142 17 170 62
19 31 20 50 20 336 0 329 -2 341 -56 377 -20 13 -55 19 -121 23 l-94 5 3 130
3 131 31 7 c146 29 268 171 281 326 15 182 -100 344 -277 389 -195 50 -408
-80 -448 -273 l-8 -38 -102 -3 -102 -3 0 90 c0 86 -1 90 -23 93 -21 3 10 61
390 711 227 390 413 712 413 716 0 5 -430 257 -461 269 -4 2 19 -50 52 -115
33 -65 66 -145 74 -178 21 -82 19 -190 -4 -265 -22 -69 -79 -170 -97 -170 -6
0 -34 15 -60 33 -92 61 -155 186 -192 380 -9 48 -19 87 -22 87 -6 0 -350 -623
-346 -627 1 -1 49 18 105 42 213 94 343 95 429 2 l23 -25 -49 -58 c-105 -127
-302 -262 -458 -313 -89 -30 -108 -33 -189 -29 -76 3 -98 8 -143 33 -63 34
-112 86 -147 156 l-26 51 22 52 c30 66 33 184 6 234 -18 32 -18 34 7 87 99
216 230 264 370 135 25 -24 56 -58 68 -78 l21 -35 10 24 c14 38 0 204 -22 254
-42 94 -139 100 -304 18 -64 -33 -96 -44 -92 -34 52 132 70 446 34 576 -16 60
-25 63 -62 26 -73 -69 -184 -302 -221 -459 l-22 -95 -29 44 c-38 58 -133 157
-167 175 -65 33 -144 7 -191 -64 -30 -47 -100 -183 -95 -187 2 -2 30 10 63 26
70 34 152 50 203 38 91 -20 133 -93 140 -243 l4 -101 -50 -52 c-55 -56 -82
-122 -82 -198 l0 -42 -72 -21 c-40 -12 -93 -27 -118 -33 -25 -7 -95 -13 -155
-13 -105 -1 -113 0 -178 32 -118 58 -220 184 -341 420 l-56 110 0 110 c0 85 3
112 15 122 8 7 15 19 15 27 0 12 11 13 58 7 138 -16 230 -78 326 -217 l61 -88
3 175 c1 97 1 255 0 351 l-3 175 -53 -80 c-66 -100 -142 -163 -231 -190 -77
-24 -161 -27 -161 -5 0 7 -7 18 -15 22 -13 8 -13 18 5 87 38 150 111 241 265
334 l89 52 -454 0 -454 0 89 -52z m845 -1713 c283 -32 549 -91 808 -180 146
-50 361 -142 462 -199 l65 -36 -1815 0 -1815 0 72 40 c382 212 964 366 1488
394 150 8 596 -4 735 -19z m-3045 -380 c72 -35 131 -109 150 -187 l7 -28 -76
0 -76 0 0 -40 0 -40 75 0 c41 0 75 -4 75 -8 0 -28 -36 -106 -66 -140 -34 -40
-122 -92 -155 -92 -12 0 -19 9 -21 28 -3 24 -7 27 -43 27 -36 0 -40 -3 -43
-27 -4 -34 -15 -35 -80 -2 -217 108 -203 436 22 518 57 21 179 16 231 -9z
m5357 9 c229 -77 245 -409 26 -518 -65 -33 -76 -32 -80 2 -3 24 -7 27 -43 27
-36 0 -40 -3 -43 -27 -2 -19 -9 -28 -21 -28 -33 0 -121 52 -155 92 -30 34 -66
112 -66 140 0 4 34 8 75 8 l75 0 0 40 0 40 -75 0 c-41 0 -75 4 -75 9 0 21 26
80 51 118 29 42 78 78 134 100 43 17 144 16 197 -3z m-4596 -208 c26 -26 34
-42 34 -71 0 -109 -122 -162 -196 -84 -24 25 -29 39 -29 80 0 44 4 54 33 80
26 23 42 29 78 29 39 0 51 -5 80 -34z m922 18 c27 -19 52 -65 52 -96 0 -34
-35 -85 -71 -103 -69 -36 -159 18 -159 96 0 49 15 81 48 102 34 21 101 22 130
1z m948 -2 c71 -57 53 -174 -31 -202 -73 -24 -145 27 -145 102 0 75 40 118
110 118 28 0 53 -7 66 -18z m944 1 c79 -46 62 -174 -26 -203 -43 -15 -73 -8
-113 26 -54 45 -51 129 7 174 31 25 93 26 132 3z m952 -12 c29 -26 33 -36 33
-80 0 -41 -5 -55 -29 -80 -38 -39 -83 -48 -130 -26 -43 21 -66 59 -66 111 0
28 8 44 34 70 29 29 41 34 80 34 36 0 52 -6 78 -29z m-3152 -541 l0 -210 -230
0 -230 0 0 210 0 210 230 0 230 0 0 -210z m950 0 l0 -210 -230 0 -230 0 0 210
0 210 230 0 230 0 0 -210z m940 0 l0 -210 -230 0 -230 0 0 210 0 210 230 0
230 0 0 -210z m950 0 l0 -210 -230 0 -230 0 0 210 0 210 230 0 230 0 0 -210z
m-4388 -267 c3 -25 7 -28 46 -31 41 -3 42 -2 42 27 l0 31 83 0 c51 0 88 -5 95
-12 17 -17 17 -579 0 -596 -7 -7 -44 -12 -95 -12 -67 0 -83 3 -83 15 0 11 -11
15 -40 15 -27 0 -43 -5 -46 -15 -5 -12 -25 -15 -90 -15 -72 0 -85 3 -94 19 -6
12 -10 123 -10 291 0 168 4 279 10 291 9 16 22 19 95 19 l84 0 3 -27z m5388
-4 c0 -29 1 -30 43 -27 38 3 42 6 45 31 l3 27 84 0 c73 0 86 -3 95 -19 6 -12
10 -123 10 -291 0 -168 -4 -279 -10 -291 -9 -16 -22 -19 -94 -19 -65 0 -85 3
-90 15 -3 10 -19 15 -46 15 -29 0 -40 -4 -40 -15 0 -12 -16 -15 -83 -15 -51 0
-88 5 -95 12 -9 9 -12 89 -12 298 0 209 3 289 12 298 7 7 44 12 95 12 l83 0 0
-31z m-4485 -63 c40 -17 65 -60 65 -112 0 -28 -8 -44 -34 -70 -28 -28 -41 -34
-78 -34 -50 0 -82 18 -103 60 -30 58 -8 126 49 154 39 19 58 20 101 2z m966
-22 c76 -73 28 -194 -78 -194 -38 0 -50 5 -79 34 -28 28 -34 42 -34 76 0 52
13 76 53 101 43 27 99 20 138 -17z m919 21 c42 -21 60 -53 60 -103 0 -37 -6
-50 -34 -78 -28 -28 -42 -34 -76 -34 -34 0 -48 6 -76 34 -28 28 -34 42 -34 76
0 52 13 76 53 100 38 24 68 25 107 5z m950 0 c42 -21 60 -53 60 -103 0 -37 -6
-50 -34 -78 -29 -29 -41 -34 -79 -34 -104 0 -155 122 -79 192 44 41 83 48 132
23z m934 0 c59 -28 81 -96 51 -155 -21 -42 -53 -60 -103 -60 -37 0 -50 6 -78
34 -26 26 -34 42 -34 70 0 51 25 95 63 111 42 18 62 18 101 0z m-3124 -575 l0
-210 -230 0 -230 0 0 210 0 210 230 0 230 0 0 -210z m950 0 l0 -210 -230 0
-230 0 0 210 0 210 230 0 230 0 0 -210z m940 0 l0 -210 -230 0 -230 0 0 210 0
210 230 0 230 0 0 -210z m950 0 l0 -210 -230 0 -230 0 0 210 0 210 230 0 230
0 0 -210z m-3469 -353 c9 -6 24 -23 33 -38 55 -93 -39 -207 -137 -165 -52 22
-72 52 -72 106 0 54 20 84 70 106 31 14 76 10 106 -9z m932 1 c25 -13 57 -68
57 -98 0 -38 -36 -90 -75 -105 -72 -31 -155 21 -155 96 0 66 27 103 90 122 17
6 57 -2 83 -15z m922 12 c7 0 27 -14 44 -31 26 -26 31 -38 31 -79 0 -40 -5
-53 -30 -78 -16 -16 -40 -32 -55 -34 -41 -8 -74 3 -105 34 -25 25 -30 38 -30
78 0 41 5 53 30 79 30 29 62 42 88 35 8 -2 20 -4 27 -4z m973 -13 c30 -14 52
-56 52 -97 0 -117 -149 -158 -210 -58 -26 43 -25 77 3 119 36 53 93 67 155 36z
m942 -6 c36 -26 51 -61 46 -104 -5 -45 -28 -74 -73 -93 -73 -31 -153 25 -153
106 0 95 103 147 180 91z m-4688 -88 c3 -25 7 -28 46 -31 41 -3 42 -2 42 27
l0 31 83 0 c51 0 88 -5 95 -12 17 -17 17 -579 0 -596 -7 -7 -44 -12 -95 -12
-67 0 -83 3 -83 15 0 11 -12 15 -45 15 -33 0 -45 -4 -45 -15 0 -12 -16 -15
-85 -15 -73 0 -86 3 -95 19 -6 12 -10 123 -10 291 0 168 4 279 10 291 9 16 22
19 95 19 l84 0 3 -27z m5388 -4 c0 -29 1 -30 43 -27 38 3 42 6 45 31 l3 27 84
0 c73 0 86 -3 95 -19 6 -12 10 -123 10 -291 0 -168 -4 -279 -10 -291 -9 -16
-22 -19 -95 -19 -69 0 -85 3 -85 15 0 11 -12 15 -45 15 -33 0 -45 -4 -45 -15
0 -12 -16 -15 -83 -15 -51 0 -88 5 -95 12 -9 9 -12 89 -12 298 0 209 3 289 12
298 7 7 44 12 95 12 l83 0 0 -31z m-3840 -469 l0 -230 -230 0 -230 0 0 230 0
230 230 0 230 0 0 -230z m950 0 l0 -230 -230 0 -230 0 0 230 0 230 230 0 230
0 0 -230z m940 0 l0 -230 -230 0 -230 0 0 230 0 230 230 0 230 0 0 -230z m950
0 l0 -230 -230 0 -230 0 0 230 0 230 230 0 230 0 0 -230z m-3469 -383 c9 -6
24 -23 33 -38 55 -93 -39 -207 -137 -165 -52 22 -72 52 -72 106 0 54 20 84 70
106 31 14 76 10 106 -9z m914 9 c39 -16 75 -68 75 -106 0 -32 -32 -85 -61
-100 -30 -17 -83 -16 -114 0 -81 43 -69 184 18 209 44 13 43 13 82 -3z m940 4
c7 0 27 -14 44 -31 26 -26 31 -38 31 -79 0 -40 -5 -53 -30 -78 -31 -31 -64
-42 -105 -34 -15 2 -39 18 -55 34 -25 25 -30 38 -30 78 0 41 5 53 30 79 30 29
62 42 88 35 8 -2 20 -4 27 -4z m948 -1 c90 -25 105 -165 22 -209 -31 -16 -84
-17 -114 0 -29 15 -61 68 -61 100 0 37 36 89 73 105 39 17 34 17 80 4z m967
-18 c36 -26 51 -61 46 -104 -5 -45 -28 -74 -73 -93 -73 -31 -153 25 -153 106
0 95 103 147 180 91z m-4688 -218 c3 -25 7 -28 46 -31 41 -3 42 -2 42 27 l0
31 85 0 c73 0 86 -3 95 -19 15 -29 14 -573 -2 -589 -7 -7 -44 -12 -95 -12 -82
0 -83 0 -83 26 0 23 -3 25 -42 22 -36 -2 -44 -7 -46 -25 -3 -22 -8 -23 -87
-23 -73 0 -86 3 -95 19 -6 12 -10 123 -10 291 0 168 4 279 10 291 9 16 22 19
95 19 l84 0 3 -27z m5388 -4 c0 -29 1 -30 43 -27 38 3 42 6 45 31 l3 27 84 0
c73 0 86 -3 95 -19 6 -12 10 -123 10 -291 0 -168 -4 -279 -10 -291 -9 -16 -22
-19 -95 -19 -79 0 -84 1 -87 23 -2 18 -10 23 -45 25 -40 3 -43 1 -43 -22 0
-26 -1 -26 -83 -26 -51 0 -88 5 -95 12 -16 16 -17 560 -2 589 9 16 22 19 95
19 l85 0 0 -31z m-5342 -1097 l42 -3 0 45 c0 25 2 46 5 46 2 0 28 -9 57 -20
63 -23 128 -85 157 -150 27 -59 28 -169 2 -226 -80 -176 -303 -228 -445 -103
-53 47 -81 96 -97 169 -27 128 58 270 188 315 l38 13 5 -41 c5 -41 6 -42 48
-45z m5342 42 l0 -45 43 3 c41 3 42 4 47 45 l5 41 38 -13 c59 -20 104 -56 142
-110 83 -119 62 -275 -51 -374 -142 -125 -365 -74 -445 103 -26 57 -25 166 2
226 38 84 133 160 212 169 4 1 7 -20 7 -45z"/>
<path d="M2764 5846 c-36 -36 -44 -78 -24 -130 13 -35 67 -66 114 -66 30 0 45
7 72 34 40 40 46 78 22 139 -14 35 -55 57 -109 57 -33 0 -47 -6 -75 -34z"/>
<path d="M4089 5865 c-24 -13 -46 -50 -50 -85 -4 -42 4 -65 35 -96 26 -26 42
-34 70 -34 75 0 126 51 126 126 0 28 -8 44 -34 70 -28 28 -41 34 -77 34 -24
-1 -56 -7 -70 -15z"/>
<path d="M1764 5645 c-109 -56 -68 -225 54 -225 43 0 95 39 109 83 33 98 -71
188 -163 142z"/>
<path d="M5133 5646 c-41 -19 -66 -57 -66 -104 0 -49 16 -78 56 -102 82 -51
177 6 177 105 0 26 -8 44 -32 70 -38 42 -87 53 -135 31z"/>
</g>
</svg>
