<?xml version="1.0" standalone="no"?>
<!DOCTYPE svg PUBLIC "-//W3C//DTD SVG 20010904//EN"
 "http://www.w3.org/TR/2001/REC-SVG-20010904/DTD/svg10.dtd">
<svg version="1.0" xmlns="http://www.w3.org/2000/svg"
 width="700.000000pt" height="700.000000pt" viewBox="0 0 700.000000 700.000000"
 preserveAspectRatio="xMidYMid meet">
<metadata>
Created by potrace 1.11, written by Peter Selinger 2001-2013
</metadata>
<g transform="translate(0.000000,700.000000) scale(0.100000,-0.100000)"
fill="#000000" stroke="none">
<path d="M1944 5443 c-148 -18 -229 -49 -313 -120 -43 -36 -154 -184 -218
-293 -98 -164 -443 -762 -443 -767 0 -3 -8 -17 -19 -31 -10 -15 -31 -49 -46
-77 -15 -27 -55 -97 -88 -155 -84 -146 -157 -302 -178 -379 -21 -80 -18 -194
6 -266 23 -68 97 -223 149 -315 24 -41 53 -91 63 -110 11 -19 46 -80 78 -135
32 -55 69 -120 83 -145 14 -24 49 -84 78 -133 30 -49 54 -91 54 -93 0 -2 55
-97 122 -211 67 -114 126 -217 132 -228 23 -43 112 -172 150 -220 78 -96 149
-148 243 -179 106 -34 202 -41 613 -41 510 0 605 13 730 96 105 70 182 176
392 539 209 361 256 458 281 582 16 76 14 125 -7 209 -19 73 -117 277 -206
427 l-60 102 -750 0 c-413 0 -750 -2 -750 -5 0 -3 57 -103 126 -223 70 -119
138 -237 152 -262 14 -25 35 -61 46 -80 12 -20 26 -45 32 -55 11 -19 25 -20
388 -23 207 -1 376 -5 376 -8 0 -3 -50 -92 -111 -197 -62 -105 -120 -207 -131
-227 -11 -19 -30 -53 -44 -75 -13 -22 -37 -65 -54 -95 l-30 -55 -378 0 -377 0
-81 140 c-44 77 -181 313 -304 525 -122 212 -231 401 -242 420 -11 19 -31 53
-43 75 -13 22 -37 64 -53 94 l-29 54 107 186 c59 102 117 202 129 221 11 19
28 49 37 65 9 17 82 143 162 280 79 138 157 274 173 302 16 29 47 82 69 119
22 36 40 69 40 73 0 3 9 17 20 31 l19 25 745 0 c410 0 747 3 750 6 3 2 -9 27
-26 54 -17 28 -43 71 -57 96 -14 26 -84 148 -156 273 l-130 226 -561 -2 c-374
-2 -594 -7 -660 -15z"/>
<path d="M4936 5402 c-18 -31 -43 -73 -54 -92 -92 -162 -496 -862 -536 -930
-90 -149 -291 -509 -329 -587 -84 -173 -101 -276 -67 -408 20 -79 86 -225 153
-341 19 -32 46 -79 59 -104 14 -25 67 -117 118 -205 51 -88 127 -218 168 -290
41 -71 82 -143 92 -160 9 -16 52 -91 95 -165 43 -74 100 -173 128 -220 27 -47
59 -101 70 -120 103 -184 132 -230 146 -234 9 -2 179 -4 378 -4 l363 0 -12 22
c-6 11 -112 197 -236 411 -124 215 -236 408 -248 430 -12 22 -86 150 -164 285
-78 135 -152 263 -165 285 -12 22 -61 107 -109 188 -47 82 -86 151 -86 155 0
3 -6 13 -14 21 -7 9 -28 43 -46 76 -17 33 -36 65 -41 71 -6 7 46 107 152 290
89 154 171 295 182 314 11 19 112 195 225 390 112 195 214 371 225 390 11 19
86 150 167 290 81 140 152 265 158 277 l12 21 -375 1 -374 0 -35 -57z"/>
</g>
</svg>
